<?xml version="1.0" standalone="no"?>
<!DOCTYPE svg PUBLIC "-//W3C//DTD SVG 20010904//EN"
 "http://www.w3.org/TR/2001/REC-SVG-20010904/DTD/svg10.dtd">
<svg version="1.0" xmlns="http://www.w3.org/2000/svg"
 width="108.000000pt" height="104.000000pt" viewBox="0 0 108.000000 104.000000"
 preserveAspectRatio="xMidYMid meet">

<g transform="translate(0.000000,104.000000) scale(0.100000,-0.100000)"
fill="#000000" stroke="none">
<path d="M440 1030 c0 -5 5 -10 10 -10 6 0 10 5 10 10 0 6 -4 10 -10 10 -5 0
-10 -4 -10 -10z"/>
<path d="M480 1030 c0 -5 5 -10 10 -10 6 0 10 5 10 10 0 6 -4 10 -10 10 -5 0
-10 -4 -10 -10z"/>
<path d="M520 1030 c0 -5 5 -10 10 -10 6 0 10 5 10 10 0 6 -4 10 -10 10 -5 0
-10 -4 -10 -10z"/>
<path d="M560 1030 c0 -5 5 -10 10 -10 6 0 10 5 10 10 0 6 -4 10 -10 10 -5 0
-10 -4 -10 -10z"/>
<path d="M600 1031 c0 -5 6 -12 13 -14 9 -4 8 -8 -3 -16 -13 -10 -13 -12 0
-21 13 -9 13 -11 0 -19 -8 -6 -11 -13 -7 -18 5 -4 12 -1 17 6 7 12 11 11 27
-4 13 -13 14 -20 5 -23 -16 -5 -16 -59 1 -65 6 -2 9 -8 5 -12 -5 -5 -16 2 -27
13 -10 12 -30 22 -45 22 -27 0 -35 -14 -13 -24 10 -5 10 -7 0 -12 -20 -9 -15
-24 7 -24 13 0 20 -7 20 -20 0 -22 -16 -27 -23 -7 -2 6 -8 8 -13 4 -5 -4 -2
-13 6 -18 11 -8 12 -12 3 -16 -8 -3 -13 -24 -13 -54 0 -45 -12 -65 -23 -36 -2
6 -8 8 -13 4 -5 -4 -2 -13 6 -18 11 -8 12 -12 3 -16 -7 -2 -13 -13 -13 -24 0
-12 -7 -19 -20 -19 -22 0 -27 -15 -7 -23 9 -4 8 -8 -3 -16 -13 -10 -13 -12 0
-21 13 -9 13 -11 0 -20 -13 -9 -13 -11 0 -21 11 -8 12 -12 3 -16 -20 -8 -15
-23 7 -23 13 0 20 -7 20 -19 0 -11 6 -22 13 -24 9 -4 8 -8 -3 -16 -8 -5 -11
-13 -7 -18 5 -4 12 -1 18 7 8 13 10 13 18 0 8 -12 13 -11 29 8 26 29 57 28 89
-4 21 -21 23 -28 12 -35 -12 -8 -12 -11 1 -19 13 -9 13 -11 0 -19 -8 -6 -11
-14 -6 -18 5 -4 11 -2 13 5 9 23 23 12 23 -18 0 -30 -14 -41 -23 -17 -2 6 -8
8 -13 4 -5 -4 -2 -12 6 -18 13 -8 13 -10 0 -19 -13 -9 -13 -11 0 -20 13 -9 13
-11 0 -20 -13 -9 -13 -11 0 -20 13 -9 13 -11 0 -20 -13 -9 -13 -11 0 -20 13
-9 13 -11 0 -20 -13 -9 -13 -11 0 -20 13 -9 13 -11 0 -19 -8 -6 -11 -13 -7
-18 5 -4 12 -1 18 7 8 13 10 13 18 0 6 -8 14 -11 18 -6 4 5 2 11 -4 13 -24 9
-13 23 16 23 16 0 32 6 34 13 4 9 8 8 16 -3 5 -8 13 -11 18 -7 4 5 1 12 -6 17
-11 6 -8 14 13 35 15 15 30 24 34 21 3 -4 0 -11 -8 -16 -8 -5 -11 -12 -7 -17
5 -4 12 -1 18 7 8 13 10 13 18 0 6 -8 13 -11 18 -7 4 5 1 12 -6 17 -11 6 -8
14 13 35 15 15 30 24 34 21 3 -4 0 -11 -8 -16 -8 -5 -11 -12 -8 -16 4 -3 19 6
33 21 15 14 24 29 21 33 -4 3 -11 0 -16 -7 -6 -11 -14 -8 -35 13 l-27 27 23
20 c19 16 21 22 10 29 -12 7 -11 11 3 26 15 14 19 15 26 3 5 -7 12 -10 17 -6
4 5 1 13 -7 18 -11 8 -12 12 -2 16 6 2 12 13 12 24 0 12 7 19 20 19 22 0 27
15 8 23 -10 4 -9 8 2 16 8 5 11 14 6 18 -5 4 -11 2 -13 -4 -7 -20 -23 -15 -23
7 0 13 7 20 20 20 22 0 27 15 8 24 -10 5 -10 7 0 12 6 3 12 14 12 25 0 10 5
19 10 19 6 0 10 -18 10 -39 0 -22 5 -42 13 -44 9 -4 8 -8 -3 -16 -13 -10 -13
-12 0 -21 13 -9 13 -11 0 -19 -8 -6 -11 -13 -8 -17 4 -3 15 1 24 11 15 14 15
18 3 27 -11 7 -11 11 -1 15 6 2 12 17 12 33 0 16 -6 31 -12 33 -10 4 -9 8 2
17 11 9 12 13 3 17 -7 2 -13 18 -13 34 0 16 -4 29 -10 29 -5 0 -10 14 -10 30
0 17 -4 30 -10 30 -5 0 -10 9 -10 20 0 11 -4 20 -10 20 -5 0 -10 9 -10 20 0
11 -4 20 -10 20 -5 0 -10 7 -10 16 0 9 -13 29 -30 44 -16 15 -30 35 -30 44 0
9 -7 16 -16 16 -9 0 -29 14 -44 30 -25 26 -35 30 -83 30 -35 0 -57 -5 -60 -12
-4 -10 -8 -9 -16 2 -9 13 -12 13 -20 1 -8 -12 -12 -11 -27 3 -14 15 -15 19 -3
27 12 8 12 10 -1 19 -13 9 -13 11 0 19 8 6 11 13 7 18 -5 4 -13 1 -18 -7 -8
-11 -12 -12 -16 -2 -5 14 -23 16 -23 3z m40 -41 c0 -5 -4 -10 -10 -10 -5 0
-10 5 -10 10 0 6 5 10 10 10 6 0 10 -4 10 -10z m40 -250 c0 -13 -7 -20 -20
-20 -23 0 -25 5 -7 25 17 20 27 18 27 -5z m72 -22 c16 -19 21 -20 29 -8 8 11
12 12 16 3 2 -7 18 -13 34 -13 16 0 29 -4 29 -10 0 -6 -27 -10 -60 -10 -53 0
-60 2 -60 20 0 13 -7 20 -20 20 -11 0 -20 5 -20 10 0 18 32 10 52 -12z"/>
<path d="M367 997 c-15 -18 -19 -19 -27 -8 -7 12 -15 8 -41 -20 -20 -21 -34
-29 -36 -21 -8 21 -34 13 -63 -18 -15 -16 -33 -30 -40 -30 -16 0 -40 -25 -40
-42 0 -8 -9 -20 -20 -28 -11 -8 -20 -21 -20 -30 0 -9 -9 -22 -20 -30 -12 -8
-20 -26 -20 -42 0 -15 -4 -28 -10 -28 -5 0 -10 -13 -10 -30 0 -16 -4 -30 -10
-30 -6 0 -10 -30 -10 -70 0 -63 2 -70 20 -70 13 0 20 -7 20 -19 0 -11 6 -22
13 -25 10 -5 10 -7 0 -12 -20 -9 -15 -24 7 -24 17 0 20 -7 20 -39 0 -22 5 -42
13 -44 9 -4 8 -8 -3 -16 -13 -10 -13 -12 0 -21 13 -9 13 -11 0 -19 -8 -6 -11
-13 -7 -18 5 -4 12 -1 17 6 7 12 11 11 26 -3 14 -15 15 -19 3 -27 -12 -8 -12
-10 1 -19 13 -9 13 -11 0 -19 -8 -6 -11 -13 -7 -18 5 -4 13 -1 18 7 8 11 12
12 16 3 2 -7 13 -13 24 -13 12 0 19 -7 19 -19 0 -11 6 -21 12 -23 9 -3 8 -10
-5 -23 -16 -15 -20 -16 -27 -4 -5 7 -12 10 -16 7 -3 -4 1 -15 10 -24 16 -15
18 -15 36 6 18 21 20 21 36 5 14 -14 15 -18 3 -25 -7 -5 -10 -12 -6 -17 5 -4
12 -1 17 6 7 12 11 11 26 -3 14 -15 15 -19 3 -26 -7 -5 -10 -12 -6 -17 5 -4
13 -1 18 7 8 11 12 12 16 3 5 -15 63 -18 63 -4 0 5 -6 12 -12 14 -10 4 -9 8 2
16 13 10 13 12 0 22 -11 8 -12 12 -2 16 19 8 14 23 -8 23 -13 0 -20 7 -20 20
0 22 16 27 23 8 2 -7 8 -9 13 -5 5 4 2 12 -6 18 -13 8 -13 10 0 19 13 9 13 11
0 20 -13 9 -13 11 0 20 13 9 13 11 0 21 -11 8 -12 12 -2 16 16 6 16 60 0 66
-10 4 -9 8 2 16 8 5 11 13 7 18 -5 4 -12 1 -17 -6 -7 -12 -11 -11 -26 3 -14
15 -15 19 -3 26 7 5 10 12 6 17 -5 4 -12 1 -18 -7 -8 -13 -10 -13 -18 0 -6 8
-14 11 -18 6 -4 -5 -2 -11 5 -13 19 -7 14 -23 -8 -23 -13 0 -20 7 -20 19 0 11
-6 22 -12 24 -10 4 -9 8 2 16 8 5 11 13 7 18 -5 4 -12 1 -17 -6 -7 -12 -11
-11 -26 3 -14 15 -15 19 -3 26 7 5 10 12 6 17 -5 4 -13 1 -18 -7 -8 -11 -12
-12 -16 -2 -3 8 -26 12 -64 12 l-59 0 0 39 c0 22 -5 42 -12 44 -10 4 -9 8 2
16 13 9 13 12 1 20 -12 8 -11 12 3 27 15 14 19 15 27 3 8 -12 10 -12 19 1 9
13 11 13 19 0 6 -8 13 -11 18 -7 4 5 1 12 -6 17 -12 7 -11 11 3 26 15 14 19
15 26 3 5 -7 12 -10 17 -6 4 5 1 13 -7 18 -11 8 -12 12 -2 16 6 2 12 13 12 24
0 12 7 19 19 19 11 0 22 6 25 13 5 10 7 10 12 0 10 -23 24 -13 24 17 0 30 14
41 23 18 4 -10 8 -9 16 2 10 13 12 13 20 0 6 -8 13 -11 18 -7 4 5 1 13 -7 18
-11 8 -12 12 -2 16 6 2 12 18 12 34 0 29 14 40 23 17 2 -7 8 -9 13 -5 5 4 2
13 -6 18 -11 8 -12 12 -2 16 16 6 16 60 0 65 -9 3 -8 10 5 22 10 10 21 15 25
12 3 -4 0 -11 -8 -16 -12 -7 -10 -13 10 -31 17 -14 21 -23 13 -26 -14 -5 -18
-63 -5 -63 4 0 14 9 22 20 8 11 26 20 41 20 15 0 30 6 33 13 5 10 7 10 12 0 6
-13 64 -19 64 -7 0 4 -10 15 -22 25 -11 11 -18 22 -14 26 4 4 11 1 16 -7 5 -8
12 -11 17 -7 4 5 1 12 -7 18 -13 8 -13 10 0 18 8 6 11 13 7 18 -5 4 -13 1 -18
-7 -8 -11 -12 -12 -16 -2 -2 6 -17 12 -33 12 -16 0 -31 -6 -33 -12 -4 -10 -8
-9 -16 2 -10 13 -12 13 -20 0 -8 -12 -13 -11 -29 8 -24 27 -23 27 -45 -1z
m-27 -27 c0 -5 -4 -10 -10 -10 -5 0 -10 5 -10 10 0 6 5 10 10 10 6 0 10 -4 10
-10z"/>
<path d="M691 1004 c-7 -8 -10 -18 -6 -22 3 -3 10 0 16 8 8 13 10 13 18 0 6
-8 13 -11 17 -8 3 4 -1 14 -9 23 -19 18 -19 18 -36 -1z"/>
<path d="M600 910 c0 -5 5 -10 10 -10 6 0 10 5 10 10 0 6 -4 10 -10 10 -5 0
-10 -4 -10 -10z"/>
<path d="M440 871 c0 -5 6 -12 13 -14 9 -4 8 -8 -3 -16 -8 -5 -11 -13 -7 -18
5 -4 12 -1 18 7 8 13 10 13 18 0 6 -8 13 -11 18 -7 4 5 1 12 -7 18 -13 8 -13
10 0 18 8 6 11 13 7 18 -5 4 -13 1 -18 -7 -8 -11 -12 -12 -16 -2 -5 14 -23 16
-23 3z"/>
<path d="M520 870 c0 -5 5 -10 10 -10 6 0 10 5 10 10 0 6 -4 10 -10 10 -5 0
-10 -4 -10 -10z"/>
<path d="M360 830 c0 -5 5 -10 10 -10 6 0 10 5 10 10 0 6 -4 10 -10 10 -5 0
-10 -4 -10 -10z"/>
<path d="M400 830 c0 -5 5 -10 10 -10 6 0 10 5 10 10 0 6 -4 10 -10 10 -5 0
-10 -4 -10 -10z"/>
<path d="M520 830 c0 -5 5 -10 10 -10 6 0 10 5 10 10 0 6 -4 10 -10 10 -5 0
-10 -4 -10 -10z"/>
<path d="M360 790 c0 -5 5 -10 10 -10 6 0 10 5 10 10 0 6 -4 10 -10 10 -5 0
-10 -4 -10 -10z"/>
<path d="M400 790 c0 -5 5 -10 10 -10 6 0 10 5 10 10 0 6 -4 10 -10 10 -5 0
-10 -4 -10 -10z"/>
<path d="M440 790 c0 -5 5 -10 10 -10 6 0 10 5 10 10 0 6 -4 10 -10 10 -5 0
-10 -4 -10 -10z"/>
<path d="M480 790 c0 -5 5 -10 10 -10 6 0 10 5 10 10 0 6 -4 10 -10 10 -5 0
-10 -4 -10 -10z"/>
<path d="M520 790 c0 -5 5 -10 10 -10 6 0 10 5 10 10 0 6 -4 10 -10 10 -5 0
-10 -4 -10 -10z"/>
<path d="M280 750 c0 -5 5 -10 10 -10 6 0 10 5 10 10 0 6 -4 10 -10 10 -5 0
-10 -4 -10 -10z"/>
<path d="M320 750 c0 -5 5 -10 10 -10 6 0 10 5 10 10 0 6 -4 10 -10 10 -5 0
-10 -4 -10 -10z"/>
<path d="M360 750 c0 -5 5 -10 10 -10 6 0 10 5 10 10 0 6 -4 10 -10 10 -5 0
-10 -4 -10 -10z"/>
<path d="M400 750 c0 -5 5 -10 10 -10 6 0 10 5 10 10 0 6 -4 10 -10 10 -5 0
-10 -4 -10 -10z"/>
<path d="M440 750 c0 -5 5 -10 10 -10 6 0 10 5 10 10 0 6 -4 10 -10 10 -5 0
-10 -4 -10 -10z"/>
<path d="M480 750 c0 -5 5 -10 10 -10 6 0 10 5 10 10 0 6 -4 10 -10 10 -5 0
-10 -4 -10 -10z"/>
<path d="M520 750 c0 -5 5 -10 10 -10 6 0 10 5 10 10 0 6 -4 10 -10 10 -5 0
-10 -4 -10 -10z"/>
<path d="M200 710 c0 -5 5 -10 10 -10 6 0 10 5 10 10 0 6 -4 10 -10 10 -5 0
-10 -4 -10 -10z"/>
<path d="M240 710 c0 -5 5 -10 10 -10 6 0 10 5 10 10 0 6 -4 10 -10 10 -5 0
-10 -4 -10 -10z"/>
<path d="M280 711 c0 -5 6 -12 13 -14 9 -4 8 -8 -3 -16 -8 -5 -11 -13 -7 -18
5 -4 12 -1 18 7 8 13 10 13 18 0 6 -8 13 -11 18 -7 4 5 1 12 -7 18 -13 8 -13
10 0 18 8 6 11 13 7 18 -5 4 -13 1 -18 -7 -8 -11 -12 -12 -16 -2 -5 14 -23 16
-23 3z"/>
<path d="M360 710 c0 -5 5 -10 10 -10 6 0 10 5 10 10 0 6 -4 10 -10 10 -5 0
-10 -4 -10 -10z"/>
<path d="M400 710 c0 -5 5 -10 10 -10 6 0 10 5 10 10 0 6 -4 10 -10 10 -5 0
-10 -4 -10 -10z"/>
<path d="M440 711 c0 -5 6 -12 13 -14 9 -4 8 -8 -3 -16 -8 -5 -11 -13 -7 -18
5 -4 12 -1 18 7 8 13 10 13 18 0 6 -8 13 -11 18 -7 4 5 1 12 -7 18 -13 8 -13
10 0 18 8 6 11 13 7 18 -5 4 -13 1 -18 -7 -8 -11 -12 -12 -16 -2 -5 14 -23 16
-23 3z"/>
<path d="M520 710 c0 -5 5 -10 10 -10 6 0 10 5 10 10 0 6 -4 10 -10 10 -5 0
-10 -4 -10 -10z"/>
<path d="M200 670 c0 -5 5 -10 10 -10 6 0 10 5 10 10 0 6 -4 10 -10 10 -5 0
-10 -4 -10 -10z"/>
<path d="M240 670 c0 -5 5 -10 10 -10 6 0 10 5 10 10 0 6 -4 10 -10 10 -5 0
-10 -4 -10 -10z"/>
<path d="M360 670 c0 -5 5 -10 10 -10 6 0 10 5 10 10 0 6 -4 10 -10 10 -5 0
-10 -4 -10 -10z"/>
<path d="M400 670 c0 -5 5 -10 10 -10 6 0 10 5 10 10 0 6 -4 10 -10 10 -5 0
-10 -4 -10 -10z"/>
<path d="M160 630 c0 -5 5 -10 10 -10 6 0 10 5 10 10 0 6 -4 10 -10 10 -5 0
-10 -4 -10 -10z"/>
<path d="M200 630 c0 -5 5 -10 10 -10 6 0 10 5 10 10 0 6 -4 10 -10 10 -5 0
-10 -4 -10 -10z"/>
<path d="M240 630 c0 -5 5 -10 10 -10 6 0 10 5 10 10 0 6 -4 10 -10 10 -5 0
-10 -4 -10 -10z"/>
<path d="M280 630 c0 -5 5 -10 10 -10 6 0 10 5 10 10 0 6 -4 10 -10 10 -5 0
-10 -4 -10 -10z"/>
<path d="M320 630 c0 -5 5 -10 10 -10 6 0 10 5 10 10 0 6 -4 10 -10 10 -5 0
-10 -4 -10 -10z"/>
<path d="M360 630 c0 -5 5 -10 10 -10 6 0 10 5 10 10 0 6 -4 10 -10 10 -5 0
-10 -4 -10 -10z"/>
<path d="M400 630 c0 -5 5 -10 10 -10 6 0 10 5 10 10 0 6 -4 10 -10 10 -5 0
-10 -4 -10 -10z"/>
<path d="M440 630 c0 -5 5 -10 10 -10 6 0 10 5 10 10 0 6 -4 10 -10 10 -5 0
-10 -4 -10 -10z"/>
<path d="M480 630 c0 -5 5 -10 10 -10 6 0 10 5 10 10 0 6 -4 10 -10 10 -5 0
-10 -4 -10 -10z"/>
<path d="M72 584 c-17 -19 6 -44 42 -44 27 0 36 -15 14 -23 -7 -2 -9 -8 -5
-13 4 -5 12 -2 18 6 8 13 10 13 18 0 6 -8 13 -11 18 -7 4 5 1 12 -7 18 -13 8
-13 10 0 18 8 6 11 13 7 18 -5 4 -12 1 -17 -6 -7 -12 -11 -11 -26 3 -14 15
-15 19 -3 26 7 5 10 12 6 17 -5 4 -13 1 -18 -7 -8 -11 -12 -12 -16 -2 -6 16
-15 15 -31 -4z"/>
<path d="M160 590 c0 -5 5 -10 10 -10 6 0 10 5 10 10 0 6 -4 10 -10 10 -5 0
-10 -4 -10 -10z"/>
<path d="M200 590 c0 -5 5 -10 10 -10 6 0 10 5 10 10 0 6 -4 10 -10 10 -5 0
-10 -4 -10 -10z"/>
<path d="M240 590 c0 -5 5 -10 10 -10 6 0 10 5 10 10 0 6 -4 10 -10 10 -5 0
-10 -4 -10 -10z"/>
<path d="M280 590 c0 -5 5 -10 10 -10 6 0 10 5 10 10 0 6 -4 10 -10 10 -5 0
-10 -4 -10 -10z"/>
<path d="M320 590 c0 -5 5 -10 10 -10 6 0 10 5 10 10 0 6 -4 10 -10 10 -5 0
-10 -4 -10 -10z"/>
<path d="M360 590 c0 -5 5 -10 10 -10 6 0 10 5 10 10 0 6 -4 10 -10 10 -5 0
-10 -4 -10 -10z"/>
<path d="M400 590 c0 -5 5 -10 10 -10 6 0 10 5 10 10 0 6 -4 10 -10 10 -5 0
-10 -4 -10 -10z"/>
<path d="M440 590 c0 -5 5 -10 10 -10 6 0 10 5 10 10 0 6 -4 10 -10 10 -5 0
-10 -4 -10 -10z"/>
<path d="M200 550 c0 -5 5 -10 10 -10 6 0 10 5 10 10 0 6 -4 10 -10 10 -5 0
-10 -4 -10 -10z"/>
<path d="M240 550 c0 -5 5 -10 10 -10 6 0 10 5 10 10 0 6 -4 10 -10 10 -5 0
-10 -4 -10 -10z"/>
<path d="M280 551 c0 -5 6 -12 13 -14 9 -4 8 -8 -3 -16 -8 -5 -11 -13 -7 -18
5 -4 12 -1 18 7 8 13 10 13 18 0 6 -8 13 -11 18 -7 4 5 1 12 -7 18 -13 8 -13
10 0 18 8 6 11 13 7 18 -5 4 -13 1 -18 -7 -8 -11 -12 -12 -16 -2 -5 14 -23 16
-23 3z"/>
<path d="M360 550 c0 -5 5 -10 10 -10 6 0 10 5 10 10 0 6 -4 10 -10 10 -5 0
-10 -4 -10 -10z"/>
<path d="M400 550 c0 -5 5 -10 10 -10 6 0 10 5 10 10 0 6 -4 10 -10 10 -5 0
-10 -4 -10 -10z"/>
<path d="M440 551 c0 -5 6 -12 13 -14 9 -4 8 -8 -3 -16 -8 -5 -11 -13 -8 -17
4 -3 14 1 23 10 15 14 15 18 1 31 -17 17 -26 19 -26 6z"/>
<path d="M80 510 c0 -5 5 -10 10 -10 6 0 10 5 10 10 0 6 -4 10 -10 10 -5 0
-10 -4 -10 -10z"/>
<path d="M200 510 c0 -5 5 -10 10 -10 6 0 10 5 10 10 0 6 -4 10 -10 10 -5 0
-10 -4 -10 -10z"/>
<path d="M240 510 c0 -5 5 -10 10 -10 6 0 10 5 10 10 0 6 -4 10 -10 10 -5 0
-10 -4 -10 -10z"/>
<path d="M360 510 c0 -5 5 -10 10 -10 6 0 10 5 10 10 0 6 -4 10 -10 10 -5 0
-10 -4 -10 -10z"/>
<path d="M400 510 c0 -5 5 -10 10 -10 6 0 10 5 10 10 0 6 -4 10 -10 10 -5 0
-10 -4 -10 -10z"/>
<path d="M0 470 c0 -5 5 -10 10 -10 6 0 10 5 10 10 0 6 -4 10 -10 10 -5 0 -10
-4 -10 -10z"/>
<path d="M240 470 c0 -5 5 -10 10 -10 6 0 10 5 10 10 0 6 -4 10 -10 10 -5 0
-10 -4 -10 -10z"/>
<path d="M280 470 c0 -5 5 -10 10 -10 6 0 10 5 10 10 0 6 -4 10 -10 10 -5 0
-10 -4 -10 -10z"/>
<path d="M320 470 c0 -5 5 -10 10 -10 6 0 10 5 10 10 0 6 -4 10 -10 10 -5 0
-10 -4 -10 -10z"/>
<path d="M360 470 c0 -5 5 -10 10 -10 6 0 10 5 10 10 0 6 -4 10 -10 10 -5 0
-10 -4 -10 -10z"/>
<path d="M400 470 c0 -5 5 -10 10 -10 6 0 10 5 10 10 0 6 -4 10 -10 10 -5 0
-10 -4 -10 -10z"/>
<path d="M440 470 c0 -5 5 -10 10 -10 6 0 10 5 10 10 0 6 -4 10 -10 10 -5 0
-10 -4 -10 -10z"/>
<path d="M0 430 c0 -5 5 -10 10 -10 6 0 10 5 10 10 0 6 -4 10 -10 10 -5 0 -10
-4 -10 -10z"/>
<path d="M280 430 c0 -5 5 -10 10 -10 6 0 10 5 10 10 0 6 -4 10 -10 10 -5 0
-10 -4 -10 -10z"/>
<path d="M320 430 c0 -5 5 -10 10 -10 6 0 10 5 10 10 0 6 -4 10 -10 10 -5 0
-10 -4 -10 -10z"/>
<path d="M360 430 c0 -5 5 -10 10 -10 6 0 10 5 10 10 0 6 -4 10 -10 10 -5 0
-10 -4 -10 -10z"/>
<path d="M400 430 c0 -5 5 -10 10 -10 6 0 10 5 10 10 0 6 -4 10 -10 10 -5 0
-10 -4 -10 -10z"/>
<path d="M440 430 c0 -5 5 -10 10 -10 6 0 10 5 10 10 0 6 -4 10 -10 10 -5 0
-10 -4 -10 -10z"/>
<path d="M480 430 c0 -5 5 -10 10 -10 6 0 10 5 10 10 0 6 -4 10 -10 10 -5 0
-10 -4 -10 -10z"/>
<path d="M0 390 c0 -5 5 -10 10 -10 6 0 10 5 10 10 0 6 -4 10 -10 10 -5 0 -10
-4 -10 -10z"/>
<path d="M40 390 c0 -5 5 -10 10 -10 6 0 10 5 10 10 0 6 -4 10 -10 10 -5 0
-10 -4 -10 -10z"/>
<path d="M360 390 c0 -5 5 -10 10 -10 6 0 10 5 10 10 0 6 -4 10 -10 10 -5 0
-10 -4 -10 -10z"/>
<path d="M400 390 c0 -5 5 -10 10 -10 6 0 10 5 10 10 0 6 -4 10 -10 10 -5 0
-10 -4 -10 -10z"/>
<path d="M440 391 c0 -5 6 -12 13 -14 9 -4 8 -8 -3 -16 -8 -5 -11 -13 -7 -18
5 -4 12 -1 18 7 8 13 10 13 18 0 6 -8 13 -11 18 -7 4 5 1 12 -7 18 -13 8 -13
10 0 18 8 6 11 13 7 18 -5 4 -13 1 -18 -7 -8 -11 -12 -12 -16 -2 -5 14 -23 16
-23 3z"/>
<path d="M600 391 c0 -5 6 -12 13 -14 9 -4 8 -8 -3 -16 -8 -5 -11 -13 -7 -18
5 -4 12 -1 18 7 8 13 10 13 18 0 6 -8 13 -11 18 -7 4 5 1 12 -7 18 -13 8 -13
10 0 18 8 6 11 13 7 18 -5 4 -13 1 -18 -7 -8 -11 -12 -12 -16 -2 -5 14 -23 16
-23 3z"/>
<path d="M1000 390 c0 -5 5 -10 10 -10 6 0 10 5 10 10 0 6 -4 10 -10 10 -5 0
-10 -4 -10 -10z"/>
<path d="M1040 390 c0 -5 5 -10 10 -10 6 0 10 5 10 10 0 6 -4 10 -10 10 -5 0
-10 -4 -10 -10z"/>
<path d="M32 344 c-11 -12 -10 -17 3 -30 9 -9 19 -13 23 -10 3 4 0 12 -8 17
-11 8 -12 12 -2 16 13 5 17 23 5 23 -5 -1 -14 -7 -21 -16z"/>
<path d="M400 350 c0 -5 5 -10 10 -10 6 0 10 5 10 10 0 6 -4 10 -10 10 -5 0
-10 -4 -10 -10z"/>
<path d="M520 350 c0 -5 5 -10 10 -10 6 0 10 5 10 10 0 6 -4 10 -10 10 -5 0
-10 -4 -10 -10z"/>
<path d="M560 350 c0 -5 5 -10 10 -10 6 0 10 5 10 10 0 6 -4 10 -10 10 -5 0
-10 -4 -10 -10z"/>
<path d="M1000 350 c0 -5 5 -10 10 -10 6 0 10 5 10 10 0 6 -4 10 -10 10 -5 0
-10 -4 -10 -10z"/>
<path d="M1040 350 c0 -5 5 -10 10 -10 6 0 10 5 10 10 0 6 -4 10 -10 10 -5 0
-10 -4 -10 -10z"/>
<path d="M400 310 c0 -5 5 -10 10 -10 6 0 10 5 10 10 0 6 -4 10 -10 10 -5 0
-10 -4 -10 -10z"/>
<path d="M440 310 c0 -5 5 -10 10 -10 6 0 10 5 10 10 0 6 -4 10 -10 10 -5 0
-10 -4 -10 -10z"/>
<path d="M480 310 c0 -5 5 -10 10 -10 6 0 10 5 10 10 0 6 -4 10 -10 10 -5 0
-10 -4 -10 -10z"/>
<path d="M520 310 c0 -5 5 -10 10 -10 6 0 10 5 10 10 0 6 -4 10 -10 10 -5 0
-10 -4 -10 -10z"/>
<path d="M560 310 c0 -5 5 -10 10 -10 6 0 10 5 10 10 0 6 -4 10 -10 10 -5 0
-10 -4 -10 -10z"/>
<path d="M600 310 c0 -5 5 -10 10 -10 6 0 10 5 10 10 0 6 -4 10 -10 10 -5 0
-10 -4 -10 -10z"/>
<path d="M640 310 c0 -5 5 -10 10 -10 6 0 10 5 10 10 0 6 -4 10 -10 10 -5 0
-10 -4 -10 -10z"/>
<path d="M960 310 c0 -5 5 -10 10 -10 6 0 10 5 10 10 0 6 -4 10 -10 10 -5 0
-10 -4 -10 -10z"/>
<path d="M1000 310 c0 -5 5 -10 10 -10 6 0 10 5 10 10 0 6 -4 10 -10 10 -5 0
-10 -4 -10 -10z"/>
<path d="M40 270 c0 -5 5 -10 10 -10 6 0 10 5 10 10 0 6 -4 10 -10 10 -5 0
-10 -4 -10 -10z"/>
<path d="M400 270 c0 -5 5 -10 10 -10 6 0 10 5 10 10 0 6 -4 10 -10 10 -5 0
-10 -4 -10 -10z"/>
<path d="M440 270 c0 -5 5 -10 10 -10 6 0 10 5 10 10 0 6 -4 10 -10 10 -5 0
-10 -4 -10 -10z"/>
<path d="M480 270 c0 -5 5 -10 10 -10 6 0 10 5 10 10 0 6 -4 10 -10 10 -5 0
-10 -4 -10 -10z"/>
<path d="M520 270 c0 -5 5 -10 10 -10 6 0 10 5 10 10 0 6 -4 10 -10 10 -5 0
-10 -4 -10 -10z"/>
<path d="M560 270 c0 -5 5 -10 10 -10 6 0 10 5 10 10 0 6 -4 10 -10 10 -5 0
-10 -4 -10 -10z"/>
<path d="M600 270 c0 -5 5 -10 10 -10 6 0 10 5 10 10 0 6 -4 10 -10 10 -5 0
-10 -4 -10 -10z"/>
<path d="M640 270 c0 -5 5 -10 10 -10 6 0 10 5 10 10 0 6 -4 10 -10 10 -5 0
-10 -4 -10 -10z"/>
<path d="M920 270 c0 -5 5 -10 10 -10 6 0 10 5 10 10 0 6 -4 10 -10 10 -5 0
-10 -4 -10 -10z"/>
<path d="M960 270 c0 -5 5 -10 10 -10 6 0 10 5 10 10 0 6 -4 10 -10 10 -5 0
-10 -4 -10 -10z"/>
<path d="M1000 270 c0 -5 5 -10 10 -10 6 0 10 5 10 10 0 6 -4 10 -10 10 -5 0
-10 -4 -10 -10z"/>
<path d="M80 230 c0 -5 5 -10 10 -10 6 0 10 5 10 10 0 6 -4 10 -10 10 -5 0
-10 -4 -10 -10z"/>
<path d="M400 230 c0 -5 5 -10 10 -10 6 0 10 5 10 10 0 6 -4 10 -10 10 -5 0
-10 -4 -10 -10z"/>
<path d="M440 231 c0 -5 6 -12 13 -14 9 -4 8 -8 -3 -16 -8 -5 -11 -13 -7 -18
5 -4 12 -1 18 7 8 13 10 13 18 0 6 -8 13 -11 18 -7 4 5 1 12 -7 18 -13 8 -13
10 0 18 8 6 11 13 7 18 -5 4 -13 1 -18 -7 -8 -11 -12 -12 -16 -2 -5 14 -23 16
-23 3z"/>
<path d="M520 230 c0 -5 5 -10 10 -10 6 0 10 5 10 10 0 6 -4 10 -10 10 -5 0
-10 -4 -10 -10z"/>
<path d="M560 230 c0 -5 5 -10 10 -10 6 0 10 5 10 10 0 6 -4 10 -10 10 -5 0
-10 -4 -10 -10z"/>
<path d="M600 231 c0 -5 6 -12 13 -14 9 -4 8 -8 -3 -16 -8 -5 -11 -13 -7 -18
5 -4 12 -1 18 7 8 13 10 13 18 0 6 -8 13 -11 18 -7 4 5 1 12 -7 18 -13 8 -13
10 0 18 8 6 11 13 7 18 -5 4 -13 1 -18 -7 -8 -11 -12 -12 -16 -2 -5 14 -23 16
-23 3z"/>
<path d="M400 190 c0 -5 5 -10 10 -10 6 0 10 5 10 10 0 6 -4 10 -10 10 -5 0
-10 -4 -10 -10z"/>
<path d="M520 190 c0 -5 5 -10 10 -10 6 0 10 5 10 10 0 6 -4 10 -10 10 -5 0
-10 -4 -10 -10z"/>
<path d="M560 190 c0 -5 5 -10 10 -10 6 0 10 5 10 10 0 6 -4 10 -10 10 -5 0
-10 -4 -10 -10z"/>
<path d="M120 150 c0 -5 5 -10 10 -10 6 0 10 5 10 10 0 6 -4 10 -10 10 -5 0
-10 -4 -10 -10z"/>
<path d="M160 150 c0 -5 5 -10 10 -10 6 0 10 5 10 10 0 6 -4 10 -10 10 -5 0
-10 -4 -10 -10z"/>
<path d="M400 150 c0 -5 5 -10 10 -10 6 0 10 5 10 10 0 6 -4 10 -10 10 -5 0
-10 -4 -10 -10z"/>
<path d="M440 150 c0 -5 5 -10 10 -10 6 0 10 5 10 10 0 6 -4 10 -10 10 -5 0
-10 -4 -10 -10z"/>
<path d="M480 150 c0 -5 5 -10 10 -10 6 0 10 5 10 10 0 6 -4 10 -10 10 -5 0
-10 -4 -10 -10z"/>
<path d="M520 150 c0 -5 5 -10 10 -10 6 0 10 5 10 10 0 6 -4 10 -10 10 -5 0
-10 -4 -10 -10z"/>
<path d="M560 150 c0 -5 5 -10 10 -10 6 0 10 5 10 10 0 6 -4 10 -10 10 -5 0
-10 -4 -10 -10z"/>
<path d="M600 150 c0 -5 5 -10 10 -10 6 0 10 5 10 10 0 6 -4 10 -10 10 -5 0
-10 -4 -10 -10z"/>
<path d="M640 150 c0 -5 5 -10 10 -10 6 0 10 5 10 10 0 6 -4 10 -10 10 -5 0
-10 -4 -10 -10z"/>
<path d="M920 150 c0 -5 5 -10 10 -10 6 0 10 5 10 10 0 6 -4 10 -10 10 -5 0
-10 -4 -10 -10z"/>
<path d="M400 110 c0 -5 5 -10 10 -10 6 0 10 5 10 10 0 6 -4 10 -10 10 -5 0
-10 -4 -10 -10z"/>
<path d="M440 110 c0 -5 5 -10 10 -10 6 0 10 5 10 10 0 6 -4 10 -10 10 -5 0
-10 -4 -10 -10z"/>
<path d="M480 110 c0 -5 5 -10 10 -10 6 0 10 5 10 10 0 6 -4 10 -10 10 -5 0
-10 -4 -10 -10z"/>
<path d="M520 110 c0 -5 5 -10 10 -10 6 0 10 5 10 10 0 6 -4 10 -10 10 -5 0
-10 -4 -10 -10z"/>
<path d="M560 110 c0 -5 5 -10 10 -10 6 0 10 5 10 10 0 6 -4 10 -10 10 -5 0
-10 -4 -10 -10z"/>
<path d="M600 110 c0 -5 5 -10 10 -10 6 0 10 5 10 10 0 6 -4 10 -10 10 -5 0
-10 -4 -10 -10z"/>
<path d="M640 110 c0 -5 5 -10 10 -10 6 0 10 5 10 10 0 6 -4 10 -10 10 -5 0
-10 -4 -10 -10z"/>
<path d="M840 111 c0 -5 6 -12 13 -14 9 -4 8 -8 -3 -16 -8 -5 -11 -13 -8 -17
4 -3 19 6 33 21 15 14 24 29 21 33 -4 3 -12 0 -17 -8 -8 -11 -12 -12 -16 -2
-5 14 -23 16 -23 3z"/>
<path d="M400 70 c0 -5 5 -10 10 -10 6 0 10 5 10 10 0 6 -4 10 -10 10 -5 0
-10 -4 -10 -10z"/>
<path d="M440 71 c0 -5 6 -12 13 -14 9 -4 8 -8 -3 -16 -8 -5 -11 -13 -7 -18 5
-4 12 -1 18 7 8 13 10 13 18 0 6 -8 13 -11 18 -7 4 5 1 12 -7 18 -13 8 -13 10
0 18 8 6 11 13 7 18 -5 4 -13 1 -18 -7 -8 -11 -12 -12 -16 -2 -5 14 -23 16
-23 3z"/>
<path d="M520 70 c0 -5 5 -10 10 -10 6 0 10 5 10 10 0 6 -4 10 -10 10 -5 0
-10 -4 -10 -10z"/>
<path d="M560 70 c0 -5 5 -10 10 -10 6 0 10 5 10 10 0 6 -4 10 -10 10 -5 0
-10 -4 -10 -10z"/>
<path d="M600 71 c0 -5 6 -12 13 -14 9 -4 8 -8 -3 -16 -8 -5 -11 -13 -7 -18 5
-4 12 -1 18 7 8 13 10 13 18 0 6 -8 13 -11 18 -7 4 5 1 12 -7 18 -13 8 -13 10
0 18 8 6 11 13 7 18 -5 4 -13 1 -18 -7 -8 -11 -12 -12 -16 -2 -5 14 -23 16
-23 3z"/>
<path d="M760 71 c0 -5 6 -11 12 -13 9 -3 8 -10 -5 -23 -16 -15 -20 -16 -27
-4 -5 7 -12 10 -16 7 -3 -4 1 -14 10 -23 14 -15 19 -13 52 20 20 20 33 39 29
43 -3 3 -11 0 -16 -8 -8 -11 -12 -12 -16 -2 -5 14 -23 16 -23 3z"/>
<path d="M400 30 c0 -5 5 -10 10 -10 6 0 10 5 10 10 0 6 -4 10 -10 10 -5 0
-10 -4 -10 -10z"/>
<path d="M520 30 c0 -5 5 -10 10 -10 6 0 10 5 10 10 0 6 -4 10 -10 10 -5 0
-10 -4 -10 -10z"/>
<path d="M560 30 c0 -5 5 -10 10 -10 6 0 10 5 10 10 0 6 -4 10 -10 10 -5 0
-10 -4 -10 -10z"/>
<path d="M680 30 c0 -5 5 -10 10 -10 6 0 10 5 10 10 0 6 -4 10 -10 10 -5 0
-10 -4 -10 -10z"/>
</g>
</svg>
