<?xml version="1.0" standalone="no"?>
<!DOCTYPE svg PUBLIC "-//W3C//DTD SVG 20010904//EN"
 "http://www.w3.org/TR/2001/REC-SVG-20010904/DTD/svg10.dtd">
<svg version="1.0" xmlns="http://www.w3.org/2000/svg"
 width="110.000000pt" height="104.000000pt" viewBox="0 0 110.000000 104.000000"
 preserveAspectRatio="xMidYMid meet">

<g transform="translate(0.000000,104.000000) scale(0.100000,-0.100000)"
fill="#000000" stroke="none">
<path d="M364 1003 c-23 -22 -39 -32 -42 -25 -4 14 -42 16 -42 2 0 -5 9 -10
20 -10 11 0 20 -4 20 -10 0 -5 -13 -10 -30 -10 -23 0 -30 -4 -30 -20 0 -13 -7
-20 -20 -20 -22 0 -27 16 -7 23 6 2 9 8 5 12 -3 4 -37 -23 -73 -60 -37 -36
-64 -69 -61 -72 3 -4 15 4 26 17 11 13 23 20 26 17 4 -4 -7 -20 -25 -36 -17
-16 -31 -36 -31 -45 0 -9 -8 -16 -20 -16 -22 0 -27 -16 -7 -23 7 -2 0 -15 -20
-34 l-33 -31 0 -126 0 -126 40 0 c33 0 40 -3 40 -19 0 -11 6 -22 13 -25 9 -5
9 -7 0 -12 -20 -9 -15 -24 7 -24 13 0 20 -7 20 -19 0 -11 6 -21 13 -24 6 -2 9
-8 5 -12 -5 -5 -17 2 -28 15 -11 13 -23 20 -27 16 -4 -4 -1 -11 7 -17 13 -8
13 -10 0 -18 -8 -6 -11 -13 -7 -18 5 -4 13 -1 18 7 8 11 12 12 16 3 2 -7 13
-13 24 -13 12 0 19 -7 19 -19 0 -11 6 -22 13 -24 9 -4 8 -8 -3 -16 -8 -5 -11
-14 -6 -18 5 -4 11 -2 13 5 9 23 23 12 23 -18 0 -23 4 -30 20 -30 13 0 20 -7
20 -20 0 -22 -16 -27 -23 -7 -2 6 -8 9 -12 5 -4 -4 9 -23 29 -43 33 -33 38
-35 52 -20 9 9 13 19 10 23 -4 3 -11 0 -16 -7 -7 -12 -11 -11 -25 2 -15 16
-15 18 0 34 14 14 18 14 26 2 8 -12 10 -12 19 1 9 13 11 13 19 0 6 -8 13 -11
18 -7 4 5 1 12 -7 18 -13 8 -13 10 0 19 13 9 13 11 0 19 -8 6 -11 13 -7 17 4
4 15 -3 26 -14 10 -12 21 -22 25 -22 3 0 6 23 6 50 0 46 12 67 23 38 2 -7 8
-9 13 -5 5 4 2 12 -5 17 -12 7 -11 11 3 26 15 14 19 15 26 3 5 -7 12 -10 17
-6 4 5 1 12 -7 18 -13 8 -13 10 0 18 8 6 11 13 7 18 -5 4 -12 1 -18 -7 -8 -13
-10 -13 -18 0 -6 8 -13 11 -18 7 -4 -5 -1 -12 6 -17 12 -7 11 -11 -3 -26 -15
-14 -19 -15 -26 -3 -7 11 -13 9 -30 -10 -11 -14 -23 -21 -27 -17 -4 4 -1 11 7
17 13 8 13 10 0 19 -13 9 -13 11 0 20 13 9 13 11 0 20 -13 9 -13 11 0 20 13 9
13 11 1 19 -12 8 -11 12 3 27 15 14 19 15 26 3 5 -7 12 -10 17 -6 4 5 1 12 -7
18 -13 8 -13 10 0 19 13 9 13 11 0 20 -13 9 -13 11 0 20 13 9 13 11 0 21 -11
8 -12 12 -2 16 6 2 12 13 12 24 0 12 7 19 20 19 15 0 20 7 20 26 0 14 6 32 14
40 21 21 46 17 46 -6 0 -13 7 -20 20 -20 13 0 20 -7 20 -19 0 -11 6 -22 13
-24 9 -4 8 -8 -3 -16 -13 -10 -13 -12 0 -21 13 -9 13 -11 0 -19 -8 -6 -11 -13
-7 -18 5 -4 12 -1 17 6 7 12 11 11 26 -3 14 -15 15 -19 3 -26 -7 -5 -10 -12
-6 -17 5 -4 12 -1 18 7 8 13 10 13 18 0 6 -8 13 -11 18 -7 4 5 1 12 -7 18 -13
8 -13 10 0 19 13 9 13 11 0 20 -13 9 -13 11 0 21 11 8 12 12 3 16 -24 9 -13
23 17 23 17 0 30 5 30 10 0 6 -4 10 -10 10 -5 0 -10 5 -10 10 0 6 9 10 20 10
13 0 20 -7 20 -20 0 -13 7 -20 20 -20 17 0 20 -7 20 -39 0 -22 5 -42 13 -44 9
-4 8 -8 -3 -16 -13 -10 -13 -12 0 -21 13 -9 13 -11 0 -20 -13 -9 -13 -11 0
-20 13 -9 13 -11 0 -19 -8 -6 -11 -14 -6 -18 5 -4 11 -2 13 5 9 23 23 12 23
-18 0 -29 1 -30 50 -30 28 0 50 5 50 10 0 6 -4 10 -10 10 -5 0 -10 5 -10 10 0
6 11 10 25 10 22 0 75 39 75 55 0 3 -13 5 -30 5 -16 0 -30 5 -30 10 0 6 5 10
10 10 6 0 10 5 10 10 0 23 -53 9 -81 -21 -16 -18 -32 -29 -36 -25 -3 3 4 14
15 25 27 23 28 31 2 31 -11 0 -20 5 -20 10 0 6 9 10 19 10 11 0 22 6 24 13 4
9 8 8 16 -3 5 -8 13 -11 18 -7 4 5 1 13 -7 18 -11 8 -12 12 -2 16 19 8 14 23
-8 23 -13 0 -20 7 -20 19 0 11 -6 21 -12 24 -7 2 -10 8 -6 12 5 5 17 -2 28
-15 11 -13 23 -20 27 -16 4 4 1 11 -6 16 -11 6 -8 14 13 35 15 15 30 24 34 21
3 -4 0 -11 -8 -16 -8 -5 -11 -12 -7 -17 5 -4 12 -1 18 7 8 13 10 13 18 0 6 -8
13 -11 18 -7 4 5 1 12 -7 18 -13 8 -13 10 0 18 8 6 11 13 7 18 -5 4 -12 1 -17
-6 -7 -12 -11 -11 -26 3 -14 15 -15 19 -3 26 11 7 9 13 -10 29 l-23 20 42 41
c23 22 39 44 36 48 -4 3 -11 0 -16 -7 -7 -12 -11 -11 -27 4 -13 13 -14 20 -5
23 19 6 14 22 -8 22 -17 0 -20 7 -20 39 0 22 -5 41 -12 44 -7 2 -10 8 -6 12 4
4 19 -5 34 -20 21 -21 24 -29 13 -35 -7 -5 -10 -12 -6 -17 5 -4 12 -1 18 7 8
13 10 13 18 0 6 -8 13 -11 16 -8 11 11 -83 98 -106 98 -12 0 -30 10 -40 22
-11 11 -22 18 -27 13 -4 -4 -1 -10 6 -12 23 -9 12 -23 -18 -23 -30 0 -41 14
-17 23 6 2 8 8 4 13 -4 5 -12 2 -18 -6 -8 -13 -10 -13 -18 0 -6 8 -13 11 -18
7 -4 -5 -1 -12 7 -17 8 -5 11 -12 7 -16 -4 -4 -16 3 -27 17 -18 20 -23 21 -31
9 -8 -13 -10 -13 -19 0 -9 13 -11 13 -21 0 -8 -11 -12 -12 -16 -2 -3 7 -23 12
-50 12 -34 0 -50 -5 -64 -22 -11 -11 -22 -18 -26 -14 -4 4 -1 11 7 16 8 5 11
12 7 17 -5 4 -12 1 -18 -7 -8 -13 -10 -13 -19 0 -9 13 -11 13 -19 1 -8 -12
-12 -12 -26 2 -15 16 -15 18 0 34 14 13 18 14 25 2 5 -7 12 -10 17 -6 7 8 -14
27 -29 27 -4 0 -24 -17 -44 -37z m22 -27 c21 -21 18 -26 -16 -26 -33 0 -36 4
-17 25 15 18 16 18 33 1z m54 -16 c0 -5 -4 -10 -10 -10 -5 0 -10 5 -10 10 0 6
5 10 10 10 6 0 10 -4 10 -10z m-220 -70 c0 -13 -7 -20 -20 -20 -23 0 -25 5 -7
25 17 20 27 18 27 -5z m627 -15 c8 -9 13 -19 10 -22 -6 -5 -37 21 -37 31 0 10
11 6 27 -9z m-707 -135 c0 -5 -4 -10 -10 -10 -5 0 -10 5 -10 10 0 6 5 10 10
10 6 0 10 -4 10 -10z m63 -22 c4 -10 8 -10 15 1 9 12 13 12 27 -3 10 -9 14
-20 11 -24 -4 -3 -11 0 -17 8 -8 13 -10 13 -19 0 -9 -13 -11 -13 -20 0 -9 13
-11 13 -19 0 -6 -8 -13 -11 -16 -8 -7 7 15 37 27 38 3 0 9 -6 11 -12z m637
-398 c0 -5 -4 -10 -10 -10 -5 0 -10 5 -10 10 0 6 5 10 10 10 6 0 10 -4 10 -10z
m-480 -120 c0 -5 -4 -10 -10 -10 -5 0 -10 5 -10 10 0 6 5 10 10 10 6 0 10 -4
10 -10z"/>
<path d="M460 1020 c0 -5 5 -10 10 -10 6 0 10 5 10 10 0 6 -4 10 -10 10 -5 0
-10 -4 -10 -10z"/>
<path d="M500 1020 c0 -5 5 -10 10 -10 6 0 10 5 10 10 0 6 -4 10 -10 10 -5 0
-10 -4 -10 -10z"/>
<path d="M540 1020 c0 -5 5 -10 10 -10 6 0 10 5 10 10 0 6 -4 10 -10 10 -5 0
-10 -4 -10 -10z"/>
<path d="M580 1020 c0 -5 5 -10 10 -10 6 0 10 5 10 10 0 6 -4 10 -10 10 -5 0
-10 -4 -10 -10z"/>
<path d="M620 1020 c0 -5 5 -10 10 -10 6 0 10 5 10 10 0 6 -4 10 -10 10 -5 0
-10 -4 -10 -10z"/>
<path d="M660 1020 c0 -5 5 -10 10 -10 6 0 10 5 10 10 0 6 -4 10 -10 10 -5 0
-10 -4 -10 -10z"/>
<path d="M700 1020 c0 -5 5 -10 10 -10 6 0 10 5 10 10 0 6 -4 10 -10 10 -5 0
-10 -4 -10 -10z"/>
<path d="M940 820 c0 -5 5 -10 10 -10 6 0 10 5 10 10 0 6 -4 10 -10 10 -5 0
-10 -4 -10 -10z"/>
<path d="M980 820 c0 -5 5 -10 10 -10 6 0 10 5 10 10 0 6 -4 10 -10 10 -5 0
-10 -4 -10 -10z"/>
<path d="M980 781 c0 -5 6 -12 13 -14 9 -4 8 -8 -3 -16 -8 -5 -11 -13 -7 -18
5 -4 12 -1 18 7 8 13 10 13 18 0 6 -8 13 -11 17 -8 3 4 -5 18 -19 32 -28 28
-37 32 -37 17z"/>
<path d="M922 724 l-23 -24 26 -26 c15 -14 29 -23 33 -20 3 4 0 12 -8 17 -11
8 -12 12 -2 16 13 5 17 63 5 62 -5 0 -18 -11 -31 -25z"/>
<path d="M980 700 c0 -5 5 -10 10 -10 6 0 10 5 10 10 0 6 -4 10 -10 10 -5 0
-10 -4 -10 -10z"/>
<path d="M1020 700 c0 -5 5 -10 10 -10 6 0 10 5 10 10 0 6 -4 10 -10 10 -5 0
-10 -4 -10 -10z"/>
<path d="M980 660 c0 -5 5 -10 10 -10 6 0 10 5 10 10 0 6 -4 10 -10 10 -5 0
-10 -4 -10 -10z"/>
<path d="M1020 660 c0 -5 5 -10 10 -10 6 0 10 5 10 10 0 6 -4 10 -10 10 -5 0
-10 -4 -10 -10z"/>
<path d="M980 620 c0 -5 5 -10 10 -10 6 0 10 5 10 10 0 6 -4 10 -10 10 -5 0
-10 -4 -10 -10z"/>
<path d="M1020 620 c0 -5 5 -10 10 -10 6 0 10 5 10 10 0 6 -4 10 -10 10 -5 0
-10 -4 -10 -10z"/>
<path d="M1060 620 c0 -5 5 -10 10 -10 6 0 10 5 10 10 0 6 -4 10 -10 10 -5 0
-10 -4 -10 -10z"/>
<path d="M460 580 c0 -5 5 -10 10 -10 6 0 10 5 10 10 0 6 -4 10 -10 10 -5 0
-10 -4 -10 -10z"/>
<path d="M980 580 c0 -5 5 -10 10 -10 6 0 10 5 10 10 0 6 -4 10 -10 10 -5 0
-10 -4 -10 -10z"/>
<path d="M1020 580 c0 -5 5 -10 10 -10 6 0 10 5 10 10 0 6 -4 10 -10 10 -5 0
-10 -4 -10 -10z"/>
<path d="M1060 580 c0 -5 5 -10 10 -10 6 0 10 5 10 10 0 6 -4 10 -10 10 -5 0
-10 -4 -10 -10z"/>
<path d="M460 540 c0 -5 5 -10 10 -10 6 0 10 5 10 10 0 6 -4 10 -10 10 -5 0
-10 -4 -10 -10z"/>
<path d="M500 541 c0 -5 6 -12 13 -14 9 -4 8 -8 -3 -16 -8 -5 -11 -13 -8 -17
4 -3 14 1 23 10 15 14 15 18 1 31 -17 17 -26 19 -26 6z"/>
<path d="M900 521 c0 -16 6 -32 13 -34 9 -4 9 -8 -2 -15 -11 -8 -9 -15 14 -37
22 -23 29 -25 36 -14 8 12 10 12 18 -1 6 -8 13 -11 18 -7 4 5 1 12 -7 18 -13
8 -13 10 0 18 8 6 11 13 7 18 -5 4 -12 1 -17 -6 -7 -12 -11 -11 -26 3 -14 15
-15 19 -3 27 12 8 12 11 -1 20 -11 8 -12 12 -2 16 23 9 12 23 -18 23 -26 0
-30 -3 -30 -29z"/>
<path d="M980 540 c0 -5 5 -10 10 -10 6 0 10 5 10 10 0 6 -4 10 -10 10 -5 0
-10 -4 -10 -10z"/>
<path d="M1020 540 c0 -5 5 -10 10 -10 6 0 10 5 10 10 0 6 -4 10 -10 10 -5 0
-10 -4 -10 -10z"/>
<path d="M1060 540 c0 -5 5 -10 10 -10 6 0 10 5 10 10 0 6 -4 10 -10 10 -5 0
-10 -4 -10 -10z"/>
<path d="M420 500 c0 -5 5 -10 10 -10 6 0 10 5 10 10 0 6 -4 10 -10 10 -5 0
-10 -4 -10 -10z"/>
<path d="M460 500 c0 -5 5 -10 10 -10 6 0 10 5 10 10 0 6 -4 10 -10 10 -5 0
-10 -4 -10 -10z"/>
<path d="M660 500 c0 -5 5 -10 10 -10 6 0 10 5 10 10 0 6 -4 10 -10 10 -5 0
-10 -4 -10 -10z"/>
<path d="M700 500 c0 -5 5 -10 10 -10 6 0 10 5 10 10 0 6 -4 10 -10 10 -5 0
-10 -4 -10 -10z"/>
<path d="M980 500 c0 -5 5 -10 10 -10 6 0 10 5 10 10 0 6 -4 10 -10 10 -5 0
-10 -4 -10 -10z"/>
<path d="M1020 500 c0 -5 5 -10 10 -10 6 0 10 5 10 10 0 6 -4 10 -10 10 -5 0
-10 -4 -10 -10z"/>
<path d="M1060 500 c0 -5 5 -10 10 -10 6 0 10 5 10 10 0 6 -4 10 -10 10 -5 0
-10 -4 -10 -10z"/>
<path d="M420 461 c0 -5 6 -12 13 -14 9 -4 8 -8 -3 -16 -8 -5 -11 -13 -7 -18
5 -4 12 -1 18 7 8 13 10 13 18 0 6 -8 13 -11 18 -7 4 5 1 12 -7 18 -13 8 -13
10 0 18 8 6 11 13 7 18 -5 4 -13 1 -18 -7 -8 -11 -12 -12 -16 -2 -5 14 -23 16
-23 3z"/>
<path d="M500 460 c0 -5 5 -10 10 -10 6 0 10 5 10 10 0 6 -4 10 -10 10 -5 0
-10 -4 -10 -10z"/>
<path d="M660 460 c0 -5 5 -10 10 -10 6 0 10 5 10 10 0 6 -4 10 -10 10 -5 0
-10 -4 -10 -10z"/>
<path d="M700 460 c0 -5 5 -10 10 -10 6 0 10 5 10 10 0 6 -4 10 -10 10 -5 0
-10 -4 -10 -10z"/>
<path d="M1020 460 c0 -5 5 -10 10 -10 6 0 10 5 10 10 0 6 -4 10 -10 10 -5 0
-10 -4 -10 -10z"/>
<path d="M1060 460 c0 -5 5 -10 10 -10 6 0 10 5 10 10 0 6 -4 10 -10 10 -5 0
-10 -4 -10 -10z"/>
<path d="M500 420 c0 -5 5 -10 10 -10 6 0 10 5 10 10 0 6 -4 10 -10 10 -5 0
-10 -4 -10 -10z"/>
<path d="M540 420 c0 -5 5 -10 10 -10 6 0 10 5 10 10 0 6 -4 10 -10 10 -5 0
-10 -4 -10 -10z"/>
<path d="M660 420 c0 -5 5 -10 10 -10 6 0 10 5 10 10 0 6 -4 10 -10 10 -5 0
-10 -4 -10 -10z"/>
<path d="M700 420 c0 -5 5 -10 10 -10 6 0 10 5 10 10 0 6 -4 10 -10 10 -5 0
-10 -4 -10 -10z"/>
<path d="M1020 420 c0 -5 5 -10 10 -10 6 0 10 5 10 10 0 6 -4 10 -10 10 -5 0
-10 -4 -10 -10z"/>
<path d="M1060 420 c0 -5 5 -10 10 -10 6 0 10 5 10 10 0 6 -4 10 -10 10 -5 0
-10 -4 -10 -10z"/>
<path d="M20 385 c0 -12 52 -57 58 -51 3 4 0 11 -8 17 -13 8 -13 10 0 18 8 6
11 13 7 18 -5 4 -13 1 -18 -7 -8 -11 -12 -12 -16 -2 -5 12 -23 17 -23 7z"/>
<path d="M420 380 c0 -5 5 -10 10 -10 6 0 10 5 10 10 0 6 -4 10 -10 10 -5 0
-10 -4 -10 -10z"/>
<path d="M460 380 c0 -5 5 -10 10 -10 6 0 10 5 10 10 0 6 -4 10 -10 10 -5 0
-10 -4 -10 -10z"/>
<path d="M500 380 c0 -5 5 -10 10 -10 6 0 10 5 10 10 0 6 -4 10 -10 10 -5 0
-10 -4 -10 -10z"/>
<path d="M540 380 c0 -5 5 -10 10 -10 6 0 10 5 10 10 0 6 -4 10 -10 10 -5 0
-10 -4 -10 -10z"/>
<path d="M580 380 c0 -5 5 -10 10 -10 6 0 10 5 10 10 0 6 -4 10 -10 10 -5 0
-10 -4 -10 -10z"/>
<path d="M620 380 c0 -5 5 -10 10 -10 6 0 10 5 10 10 0 6 -4 10 -10 10 -5 0
-10 -4 -10 -10z"/>
<path d="M660 380 c0 -5 5 -10 10 -10 6 0 10 5 10 10 0 6 -4 10 -10 10 -5 0
-10 -4 -10 -10z"/>
<path d="M700 380 c0 -5 5 -10 10 -10 6 0 10 5 10 10 0 6 -4 10 -10 10 -5 0
-10 -4 -10 -10z"/>
<path d="M961 363 c-18 -19 -21 -27 -11 -33 11 -6 10 -12 -4 -26 -15 -14 -19
-15 -26 -3 -5 7 -12 10 -17 6 -4 -5 -1 -12 6 -17 12 -7 11 -11 -3 -26 -15 -14
-19 -15 -26 -3 -5 7 -13 10 -17 5 -4 -5 -2 -11 5 -13 23 -9 12 -23 -17 -23
-16 0 -32 -6 -34 -12 -4 -10 -8 -9 -16 2 -5 8 -13 11 -18 7 -4 -5 -1 -12 6
-17 12 -7 11 -11 -3 -26 -15 -14 -19 -15 -26 -3 -5 7 -12 10 -17 6 -4 -5 -1
-12 7 -18 13 -8 13 -10 0 -19 -13 -9 -13 -11 0 -21 11 -8 12 -12 3 -16 -23 -9
-13 -23 16 -23 16 0 31 6 34 13 2 6 8 9 12 5 4 -4 -5 -19 -20 -34 -21 -21 -29
-24 -35 -13 -5 7 -12 10 -17 6 -4 -5 -1 -12 6 -17 12 -7 11 -11 -3 -26 -15
-14 -19 -15 -26 -3 -5 7 -12 10 -17 6 -7 -8 14 -27 29 -27 4 0 24 16 44 36 27
28 38 33 44 24 6 -10 19 -3 48 28 22 23 48 42 56 42 9 0 16 8 16 20 0 13 7 20
20 20 11 0 20 5 20 10 0 6 -4 10 -10 10 -5 0 -10 9 -10 20 0 22 16 27 23 8 2
-7 8 -9 13 -5 5 4 2 12 -5 17 -11 6 -5 18 28 49 l43 42 -23 20 c-19 17 -21 22
-9 29 8 5 11 12 7 17 -5 4 -13 1 -18 -7 -8 -11 -12 -12 -16 -2 -7 17 -15 14
-42 -15z m79 -43 c0 -5 -4 -10 -10 -10 -5 0 -10 5 -10 10 0 6 5 10 10 10 6 0
10 -4 10 -10z m-54 -24 c21 -21 18 -26 -16 -26 -33 0 -36 4 -17 25 15 18 16
18 33 1z"/>
<path d="M1060 380 c0 -5 5 -10 10 -10 6 0 10 5 10 10 0 6 -4 10 -10 10 -5 0
-10 -4 -10 -10z"/>
<path d="M380 340 c0 -5 5 -10 10 -10 6 0 10 5 10 10 0 6 -4 10 -10 10 -5 0
-10 -4 -10 -10z"/>
<path d="M420 340 c0 -5 5 -10 10 -10 6 0 10 5 10 10 0 6 -4 10 -10 10 -5 0
-10 -4 -10 -10z"/>
<path d="M460 340 c0 -5 5 -10 10 -10 6 0 10 5 10 10 0 6 -4 10 -10 10 -5 0
-10 -4 -10 -10z"/>
<path d="M500 340 c0 -5 5 -10 10 -10 6 0 10 5 10 10 0 6 -4 10 -10 10 -5 0
-10 -4 -10 -10z"/>
<path d="M540 340 c0 -5 5 -10 10 -10 6 0 10 5 10 10 0 6 -4 10 -10 10 -5 0
-10 -4 -10 -10z"/>
<path d="M580 340 c0 -5 5 -10 10 -10 6 0 10 5 10 10 0 6 -4 10 -10 10 -5 0
-10 -4 -10 -10z"/>
<path d="M620 340 c0 -5 5 -10 10 -10 6 0 10 5 10 10 0 6 -4 10 -10 10 -5 0
-10 -4 -10 -10z"/>
<path d="M660 340 c0 -5 5 -10 10 -10 6 0 10 5 10 10 0 6 -4 10 -10 10 -5 0
-10 -4 -10 -10z"/>
<path d="M700 340 c0 -5 5 -10 10 -10 6 0 10 5 10 10 0 6 -4 10 -10 10 -5 0
-10 -4 -10 -10z"/>
<path d="M60 300 c0 -5 5 -10 10 -10 6 0 10 5 10 10 0 6 -4 10 -10 10 -5 0
-10 -4 -10 -10z"/>
<path d="M380 300 c0 -5 5 -10 10 -10 6 0 10 5 10 10 0 6 -4 10 -10 10 -5 0
-10 -4 -10 -10z"/>
<path d="M500 300 c0 -5 5 -10 10 -10 6 0 10 5 10 10 0 6 -4 10 -10 10 -5 0
-10 -4 -10 -10z"/>
<path d="M540 300 c0 -5 5 -10 10 -10 6 0 10 5 10 10 0 6 -4 10 -10 10 -5 0
-10 -4 -10 -10z"/>
<path d="M580 301 c0 -5 6 -12 13 -14 9 -4 8 -8 -3 -16 -8 -5 -11 -13 -7 -18
5 -4 12 -1 18 7 8 13 10 13 18 0 6 -8 13 -11 18 -7 4 5 1 12 -7 18 -13 8 -13
10 0 18 8 6 11 13 7 18 -5 4 -13 1 -18 -7 -8 -11 -12 -12 -16 -2 -5 14 -23 16
-23 3z"/>
<path d="M660 300 c0 -5 5 -10 10 -10 6 0 10 5 10 10 0 6 -4 10 -10 10 -5 0
-10 -4 -10 -10z"/>
<path d="M700 300 c0 -5 5 -10 10 -10 6 0 10 5 10 10 0 6 -4 10 -10 10 -5 0
-10 -4 -10 -10z"/>
<path d="M740 300 c0 -5 5 -10 10 -10 6 0 10 5 10 10 0 6 -4 10 -10 10 -5 0
-10 -4 -10 -10z"/>
<path d="M500 260 c0 -5 5 -10 10 -10 6 0 10 5 10 10 0 6 -4 10 -10 10 -5 0
-10 -4 -10 -10z"/>
<path d="M540 260 c0 -5 5 -10 10 -10 6 0 10 5 10 10 0 6 -4 10 -10 10 -5 0
-10 -4 -10 -10z"/>
<path d="M660 260 c0 -5 5 -10 10 -10 6 0 10 5 10 10 0 6 -4 10 -10 10 -5 0
-10 -4 -10 -10z"/>
<path d="M700 260 c0 -5 5 -10 10 -10 6 0 10 5 10 10 0 6 -4 10 -10 10 -5 0
-10 -4 -10 -10z"/>
<path d="M740 260 c0 -5 5 -10 10 -10 6 0 10 5 10 10 0 6 -4 10 -10 10 -5 0
-10 -4 -10 -10z"/>
<path d="M780 260 c0 -5 5 -10 10 -10 6 0 10 5 10 10 0 6 -4 10 -10 10 -5 0
-10 -4 -10 -10z"/>
<path d="M820 260 c0 -5 5 -10 10 -10 6 0 10 5 10 10 0 6 -4 10 -10 10 -5 0
-10 -4 -10 -10z"/>
<path d="M100 225 c0 -12 52 -57 58 -51 3 4 0 11 -8 17 -13 8 -13 10 0 18 8 6
11 13 7 18 -5 4 -13 1 -18 -7 -8 -11 -12 -12 -16 -2 -5 12 -23 17 -23 7z"/>
<path d="M460 220 c0 -5 5 -10 10 -10 6 0 10 5 10 10 0 6 -4 10 -10 10 -5 0
-10 -4 -10 -10z"/>
<path d="M500 220 c0 -5 5 -10 10 -10 6 0 10 5 10 10 0 6 -4 10 -10 10 -5 0
-10 -4 -10 -10z"/>
<path d="M540 220 c0 -5 5 -10 10 -10 6 0 10 5 10 10 0 6 -4 10 -10 10 -5 0
-10 -4 -10 -10z"/>
<path d="M580 220 c0 -5 5 -10 10 -10 6 0 10 5 10 10 0 6 -4 10 -10 10 -5 0
-10 -4 -10 -10z"/>
<path d="M620 220 c0 -5 5 -10 10 -10 6 0 10 5 10 10 0 6 -4 10 -10 10 -5 0
-10 -4 -10 -10z"/>
<path d="M660 220 c0 -5 5 -10 10 -10 6 0 10 5 10 10 0 6 -4 10 -10 10 -5 0
-10 -4 -10 -10z"/>
<path d="M700 220 c0 -5 5 -10 10 -10 6 0 10 5 10 10 0 6 -4 10 -10 10 -5 0
-10 -4 -10 -10z"/>
<path d="M740 220 c0 -5 5 -10 10 -10 6 0 10 5 10 10 0 6 -4 10 -10 10 -5 0
-10 -4 -10 -10z"/>
<path d="M420 180 c0 -5 5 -10 10 -10 6 0 10 5 10 10 0 6 -4 10 -10 10 -5 0
-10 -4 -10 -10z"/>
<path d="M460 180 c0 -5 5 -10 10 -10 6 0 10 5 10 10 0 6 -4 10 -10 10 -5 0
-10 -4 -10 -10z"/>
<path d="M500 180 c0 -5 5 -10 10 -10 6 0 10 5 10 10 0 6 -4 10 -10 10 -5 0
-10 -4 -10 -10z"/>
<path d="M540 180 c0 -5 5 -10 10 -10 6 0 10 5 10 10 0 6 -4 10 -10 10 -5 0
-10 -4 -10 -10z"/>
<path d="M580 180 c0 -5 5 -10 10 -10 6 0 10 5 10 10 0 6 -4 10 -10 10 -5 0
-10 -4 -10 -10z"/>
<path d="M620 180 c0 -5 5 -10 10 -10 6 0 10 5 10 10 0 6 -4 10 -10 10 -5 0
-10 -4 -10 -10z"/>
<path d="M660 180 c0 -5 5 -10 10 -10 6 0 10 5 10 10 0 6 -4 10 -10 10 -5 0
-10 -4 -10 -10z"/>
<path d="M700 180 c0 -5 5 -10 10 -10 6 0 10 5 10 10 0 6 -4 10 -10 10 -5 0
-10 -4 -10 -10z"/>
<path d="M140 140 c0 -5 5 -10 10 -10 6 0 10 5 10 10 0 6 -4 10 -10 10 -5 0
-10 -4 -10 -10z"/>
<path d="M180 140 c0 -5 5 -10 10 -10 6 0 10 5 10 10 0 6 -4 10 -10 10 -5 0
-10 -4 -10 -10z"/>
<path d="M420 141 c0 -5 6 -12 13 -14 9 -4 8 -8 -3 -16 -8 -5 -11 -13 -7 -18
5 -4 12 -1 18 7 8 13 10 13 18 0 6 -8 13 -11 18 -7 4 5 1 12 -7 18 -13 8 -13
10 0 18 8 6 11 13 7 18 -5 4 -13 1 -18 -7 -8 -11 -12 -12 -16 -2 -5 14 -23 16
-23 3z"/>
<path d="M500 140 c0 -5 5 -10 10 -10 6 0 10 5 10 10 0 6 -4 10 -10 10 -5 0
-10 -4 -10 -10z"/>
<path d="M540 140 c0 -5 5 -10 10 -10 6 0 10 5 10 10 0 6 -4 10 -10 10 -5 0
-10 -4 -10 -10z"/>
<path d="M580 141 c0 -5 6 -12 13 -14 9 -4 8 -8 -3 -16 -8 -5 -11 -13 -7 -18
5 -4 12 -1 18 7 8 13 10 13 18 0 6 -8 13 -11 18 -7 4 5 1 12 -7 18 -13 8 -13
10 0 18 8 6 11 13 7 18 -5 4 -13 1 -18 -7 -8 -11 -12 -12 -16 -2 -5 14 -23 16
-23 3z"/>
<path d="M660 140 c0 -5 5 -10 10 -10 6 0 10 5 10 10 0 6 -4 10 -10 10 -5 0
-10 -4 -10 -10z"/>
<path d="M700 140 c0 -5 5 -10 10 -10 6 0 10 5 10 10 0 6 -4 10 -10 10 -5 0
-10 -4 -10 -10z"/>
<path d="M380 100 c0 -5 5 -10 10 -10 6 0 10 5 10 10 0 6 -4 10 -10 10 -5 0
-10 -4 -10 -10z"/>
<path d="M500 100 c0 -5 5 -10 10 -10 6 0 10 5 10 10 0 6 -4 10 -10 10 -5 0
-10 -4 -10 -10z"/>
<path d="M540 100 c0 -5 5 -10 10 -10 6 0 10 5 10 10 0 6 -4 10 -10 10 -5 0
-10 -4 -10 -10z"/>
<path d="M660 100 c0 -5 5 -10 10 -10 6 0 10 5 10 10 0 6 -4 10 -10 10 -5 0
-10 -4 -10 -10z"/>
<path d="M700 100 c0 -5 5 -10 10 -10 6 0 10 5 10 10 0 6 -4 10 -10 10 -5 0
-10 -4 -10 -10z"/>
<path d="M340 60 c0 -5 5 -10 10 -10 6 0 10 5 10 10 0 6 -4 10 -10 10 -5 0
-10 -4 -10 -10z"/>
<path d="M380 60 c0 -5 5 -10 10 -10 6 0 10 5 10 10 0 6 -4 10 -10 10 -5 0
-10 -4 -10 -10z"/>
<path d="M420 60 c0 -5 5 -10 10 -10 6 0 10 5 10 10 0 6 -4 10 -10 10 -5 0
-10 -4 -10 -10z"/>
<path d="M460 60 c0 -5 5 -10 10 -10 6 0 10 5 10 10 0 6 -4 10 -10 10 -5 0
-10 -4 -10 -10z"/>
<path d="M500 60 c0 -5 5 -10 10 -10 6 0 10 5 10 10 0 6 -4 10 -10 10 -5 0
-10 -4 -10 -10z"/>
<path d="M540 60 c0 -5 5 -10 10 -10 6 0 10 5 10 10 0 6 -4 10 -10 10 -5 0
-10 -4 -10 -10z"/>
<path d="M580 60 c0 -5 5 -10 10 -10 6 0 10 5 10 10 0 6 -4 10 -10 10 -5 0
-10 -4 -10 -10z"/>
<path d="M620 60 c0 -5 5 -10 10 -10 6 0 10 5 10 10 0 6 -4 10 -10 10 -5 0
-10 -4 -10 -10z"/>
<path d="M660 60 c0 -5 5 -10 10 -10 6 0 10 5 10 10 0 6 -4 10 -10 10 -5 0
-10 -4 -10 -10z"/>
<path d="M700 60 c0 -5 5 -10 10 -10 6 0 10 5 10 10 0 6 -4 10 -10 10 -5 0
-10 -4 -10 -10z"/>
<path d="M340 20 c0 -5 5 -10 10 -10 6 0 10 5 10 10 0 6 -4 10 -10 10 -5 0
-10 -4 -10 -10z"/>
<path d="M380 20 c0 -5 5 -10 10 -10 6 0 10 5 10 10 0 6 -4 10 -10 10 -5 0
-10 -4 -10 -10z"/>
<path d="M420 20 c0 -5 5 -10 10 -10 6 0 10 5 10 10 0 6 -4 10 -10 10 -5 0
-10 -4 -10 -10z"/>
<path d="M460 20 c0 -5 5 -10 10 -10 6 0 10 5 10 10 0 6 -4 10 -10 10 -5 0
-10 -4 -10 -10z"/>
<path d="M500 20 c0 -5 5 -10 10 -10 6 0 10 5 10 10 0 6 -4 10 -10 10 -5 0
-10 -4 -10 -10z"/>
<path d="M540 20 c0 -5 5 -10 10 -10 6 0 10 5 10 10 0 6 -4 10 -10 10 -5 0
-10 -4 -10 -10z"/>
<path d="M580 20 c0 -5 5 -10 10 -10 6 0 10 5 10 10 0 6 -4 10 -10 10 -5 0
-10 -4 -10 -10z"/>
<path d="M620 20 c0 -5 5 -10 10 -10 6 0 10 5 10 10 0 6 -4 10 -10 10 -5 0
-10 -4 -10 -10z"/>
<path d="M660 20 c0 -5 5 -10 10 -10 6 0 10 5 10 10 0 6 -4 10 -10 10 -5 0
-10 -4 -10 -10z"/>
</g>
</svg>
