<?xml version="1.0" standalone="no"?>
<!DOCTYPE svg PUBLIC "-//W3C//DTD SVG 20010904//EN"
 "http://www.w3.org/TR/2001/REC-SVG-20010904/DTD/svg10.dtd">
<svg version="1.0" xmlns="http://www.w3.org/2000/svg"
 width="110.000000pt" height="104.000000pt" viewBox="0 0 110.000000 104.000000"
 preserveAspectRatio="xMidYMid meet">

<g transform="translate(0.000000,104.000000) scale(0.100000,-0.100000)"
fill="#000000" stroke="none">
<path d="M471 1024 c-7 -8 -10 -18 -6 -22 3 -3 10 0 16 8 8 13 10 13 18 0 6
-8 13 -11 17 -8 3 4 -1 14 -9 23 -19 18 -19 18 -36 -1z"/>
<path d="M631 1024 c-7 -8 -10 -18 -6 -22 3 -3 10 0 16 8 8 13 10 13 18 0 6
-8 13 -11 17 -8 3 4 -1 14 -9 23 -19 18 -19 18 -36 -1z"/>
<path d="M380 1010 c0 -5 5 -10 10 -10 6 0 10 5 10 10 0 6 -4 10 -10 10 -5 0
-10 -4 -10 -10z"/>
<path d="M420 1010 c0 -5 5 -10 10 -10 6 0 10 5 10 10 0 6 -4 10 -10 10 -5 0
-10 -4 -10 -10z"/>
<path d="M540 1010 c0 -5 5 -10 10 -10 6 0 10 5 10 10 0 6 -4 10 -10 10 -5 0
-10 -4 -10 -10z"/>
<path d="M580 1010 c0 -5 5 -10 10 -10 6 0 10 5 10 10 0 6 -4 10 -10 10 -5 0
-10 -4 -10 -10z"/>
<path d="M700 1011 c0 -5 6 -11 12 -13 9 -3 8 -10 -5 -23 -16 -15 -20 -16 -27
-4 -5 7 -13 10 -17 5 -4 -5 -2 -11 5 -13 23 -9 12 -23 -18 -23 -30 0 -41 14
-17 23 6 2 8 8 4 13 -4 5 -12 2 -18 -6 -8 -13 -10 -13 -19 0 -9 13 -11 13 -20
0 -9 -13 -11 -13 -20 0 -9 13 -11 13 -20 0 -9 -13 -11 -13 -20 0 -9 13 -11 13
-21 0 -8 -11 -12 -12 -16 -2 -3 7 -24 12 -53 12 -29 0 -50 -5 -53 -12 -4 -10
-8 -9 -16 2 -8 12 -13 11 -31 -9 -11 -14 -23 -21 -27 -17 -4 4 -1 11 7 16 8 5
11 12 7 16 -4 4 -15 -3 -26 -14 -10 -12 -28 -22 -40 -22 -25 0 -111 -81 -111
-105 0 -8 -9 -15 -20 -15 -13 0 -20 -7 -20 -20 0 -11 -4 -20 -10 -20 -5 0 -10
-9 -10 -20 0 -11 -4 -20 -10 -20 -5 0 -10 -4 -10 -10 0 -5 14 -10 30 -10 34 0
37 -5 14 -27 -13 -13 -17 -14 -24 -3 -6 10 -15 6 -35 -15 -23 -22 -25 -29 -14
-37 11 -7 11 -11 2 -15 -8 -3 -13 -24 -13 -53 0 -29 -5 -51 -12 -54 -11 -5
-11 -7 0 -12 8 -4 12 -29 12 -75 0 -39 4 -69 10 -69 6 0 10 -9 10 -20 0 -11 5
-20 10 -20 6 0 10 -16 10 -36 0 -28 8 -43 40 -74 26 -25 40 -47 40 -64 0 -22
4 -26 30 -26 23 0 30 -4 30 -20 0 -13 7 -20 20 -20 15 0 20 7 20 29 0 16 -6
31 -12 34 -7 2 -10 8 -6 12 5 5 17 -2 28 -15 11 -13 23 -20 27 -16 4 4 1 11
-7 17 -13 8 -13 10 0 19 13 9 13 11 0 20 -13 9 -13 11 0 19 8 6 11 14 6 18 -5
4 -11 2 -13 -4 -9 -24 -23 -13 -23 17 0 30 -15 41 -22 18 -3 -9 -10 -8 -23 5
-15 16 -16 20 -4 27 7 5 10 13 5 17 -5 4 -11 2 -13 -4 -9 -24 -23 -13 -23 17
0 30 14 41 23 18 2 -7 8 -9 13 -5 5 4 2 12 -6 18 -13 8 -13 10 0 19 13 9 13
11 0 20 -13 9 -13 11 0 20 13 9 13 11 0 21 -11 8 -12 12 -2 16 7 2 12 22 12
44 0 32 3 39 20 39 17 0 20 7 20 40 0 38 2 40 30 40 23 0 30 -5 30 -19 0 -11
6 -22 13 -24 9 -4 8 -8 -3 -16 -13 -10 -13 -12 0 -21 13 -9 13 -11 0 -19 -8
-6 -11 -14 -6 -18 5 -4 11 -2 13 5 9 23 23 12 23 -18 0 -30 -14 -41 -23 -17
-2 6 -8 8 -13 4 -5 -4 -2 -12 6 -18 13 -8 13 -10 0 -18 -8 -6 -11 -13 -7 -18
5 -4 12 -1 18 7 8 13 10 13 18 0 6 -8 14 -11 18 -6 4 5 2 11 -4 13 -24 9 -13
23 17 23 30 0 41 -14 18 -23 -7 -2 -9 -8 -5 -13 4 -5 12 -2 18 6 8 13 10 13
18 0 6 -8 13 -11 18 -7 4 5 1 12 -6 17 -12 7 -11 11 2 25 16 15 18 15 34 0 13
-14 14 -18 2 -25 -7 -5 -10 -12 -6 -17 5 -4 12 -1 17 6 7 12 11 11 26 -3 14
-15 15 -19 3 -26 -7 -5 -10 -12 -6 -17 5 -4 12 -1 17 6 7 12 11 11 27 -4 13
-13 14 -20 5 -23 -19 -6 -14 -22 8 -22 13 0 20 -7 20 -20 0 -26 8 -25 31 2 11
11 22 18 26 14 4 -4 1 -11 -7 -17 -13 -8 -13 -10 0 -19 13 -9 13 -11 0 -19 -8
-6 -11 -13 -7 -18 5 -4 12 -1 18 7 8 13 10 13 18 0 6 -8 14 -11 18 -6 4 5 2
11 -4 13 -24 9 -13 23 16 23 16 0 32 6 34 13 4 9 8 8 16 -3 5 -8 13 -11 18 -7
4 5 1 13 -7 18 -11 8 -12 12 -2 16 6 2 12 13 12 24 0 12 7 19 20 19 22 0 27
16 8 22 -9 3 -8 10 5 23 16 15 20 16 27 4 5 -7 12 -10 17 -6 4 5 1 12 -7 18
-13 8 -13 10 0 18 8 6 11 13 7 18 -5 4 -12 1 -17 -6 -7 -12 -11 -11 -26 3 -14
15 -15 19 -3 26 7 5 10 13 5 17 -5 4 -11 2 -13 -4 -9 -24 -23 -13 -23 17 0 27
-3 30 -30 30 -30 0 -41 -14 -17 -23 9 -4 9 -8 -2 -15 -12 -9 -9 -16 19 -42 28
-26 31 -33 19 -42 -11 -7 -11 -11 -1 -15 19 -8 14 -23 -8 -23 -17 0 -20 7 -20
40 0 22 -3 40 -6 40 -3 0 -23 -18 -44 -40 -40 -41 -70 -52 -70 -24 0 8 -7 22
-15 31 -14 14 -18 13 -35 -7 -18 -20 -21 -21 -35 -6 -15 15 -15 17 0 33 14 14
18 14 26 2 8 -12 11 -12 20 1 8 11 12 12 16 3 2 -7 18 -13 34 -13 29 0 40 -14
17 -23 -7 -2 -10 -8 -6 -12 4 -4 19 5 33 20 15 14 24 29 20 33 -4 4 -10 1 -12
-5 -11 -32 -23 -8 -23 47 0 49 3 60 16 60 9 0 25 10 35 22 11 11 22 18 26 14
4 -4 1 -11 -7 -16 -8 -5 -11 -12 -7 -17 5 -4 12 -1 18 7 8 13 10 13 18 0 6 -8
13 -11 18 -7 4 5 1 12 -7 18 -13 8 -13 10 0 18 8 6 11 13 7 18 -5 4 -12 1 -17
-6 -7 -12 -11 -11 -26 3 -14 15 -15 19 -3 26 11 7 9 13 -10 30 -14 11 -21 23
-16 28 4 4 10 1 12 -5 3 -7 18 -13 34 -13 29 0 40 -14 17 -23 -7 -2 -9 -8 -5
-13 4 -5 12 -2 18 6 8 13 10 13 18 0 6 -8 13 -11 18 -7 4 5 1 12 -6 17 -12 7
-11 11 3 26 15 14 19 15 26 3 5 -7 12 -10 17 -6 4 5 1 12 -7 18 -13 8 -13 10
0 18 8 6 11 14 6 18 -5 4 -11 2 -13 -4 -9 -24 -23 -13 -23 17 0 27 -3 30 -30
30 -30 0 -41 15 -18 22 8 3 2 15 -16 33 -22 22 -30 25 -36 14 -5 -7 -12 -10
-16 -7 -3 4 1 14 10 23 15 15 19 13 56 -25 23 -24 44 -39 48 -36 3 4 0 11 -8
17 -13 8 -13 10 0 19 13 9 13 11 1 19 -12 8 -11 12 3 27 15 14 19 15 26 3 5
-7 12 -10 17 -6 4 5 1 12 -7 17 -12 7 -10 13 9 30 14 11 21 23 18 27 -4 3 -16
-4 -27 -18 -17 -19 -23 -21 -30 -9 -5 8 -12 11 -17 7 -4 -5 -1 -12 7 -17 8 -5
11 -12 7 -16 -4 -4 -15 3 -26 14 -10 12 -30 22 -45 22 -30 0 -32 5 -10 27 13
14 17 14 24 2 5 -7 12 -10 16 -7 3 4 -5 18 -19 32 -28 28 -37 32 -37 17z m66
-266 c14 -13 14 -17 0 -31 -15 -14 -17 -14 -32 0 -12 13 -13 18 -2 30 16 19
16 19 34 1z m-286 -195 c0 -5 -4 -10 -10 -10 -5 0 -10 -4 -10 -10 0 -5 12 -10
26 -10 14 0 32 -7 40 -15 13 -13 12 -18 -11 -40 -23 -24 -26 -25 -42 -10 -13
14 -14 18 -2 25 7 5 10 12 6 17 -5 4 -12 1 -18 -7 -8 -13 -10 -13 -18 0 -6 8
-13 11 -18 7 -4 -5 -1 -12 6 -17 12 -7 12 -11 -2 -24 -23 -24 -27 -20 -27 24
0 32 4 40 18 40 10 0 24 9 32 20 15 21 30 26 30 10z m320 -116 c0 -3 -7 -12
-15 -21 -20 -19 -32 -10 -14 11 14 15 29 21 29 10z m-160 -84 c0 -5 -4 -10
-10 -10 -5 0 -10 5 -10 10 0 6 5 10 10 10 6 0 10 -4 10 -10z m80 -40 c0 -5
-13 -10 -30 -10 -16 0 -30 5 -30 10 0 6 14 10 30 10 17 0 30 -4 30 -10z m-500
-110 c0 -11 -4 -20 -10 -20 -5 0 -10 9 -10 20 0 11 5 20 10 20 6 0 10 -9 10
-20z"/>
<path d="M740 730 c0 -5 5 -10 10 -10 6 0 10 5 10 10 0 6 -4 10 -10 10 -5 0
-10 -4 -10 -10z"/>
<path d="M500 490 c0 -5 5 -10 10 -10 6 0 10 5 10 10 0 6 -4 10 -10 10 -5 0
-10 -4 -10 -10z"/>
<path d="M780 970 c0 -5 5 -10 10 -10 6 0 10 5 10 10 0 6 -4 10 -10 10 -5 0
-10 -4 -10 -10z"/>
<path d="M871 904 c-7 -8 -10 -18 -6 -22 3 -3 10 0 15 7 7 12 11 11 26 -3 14
-15 15 -19 3 -26 -7 -5 -10 -12 -6 -17 5 -4 12 -1 17 6 7 12 11 11 26 -3 14
-15 15 -19 3 -26 -7 -5 -10 -12 -7 -16 4 -3 14 1 23 10 15 14 12 19 -29 61
-25 25 -47 45 -48 45 -2 -1 -9 -8 -17 -16z"/>
<path d="M820 850 c0 -5 5 -10 10 -10 6 0 10 5 10 10 0 6 -4 10 -10 10 -5 0
-10 -4 -10 -10z"/>
<path d="M860 850 c0 -5 5 -10 10 -10 6 0 10 5 10 10 0 6 -4 10 -10 10 -5 0
-10 -4 -10 -10z"/>
<path d="M820 810 c0 -5 5 -10 10 -10 6 0 10 5 10 10 0 6 -4 10 -10 10 -5 0
-10 -4 -10 -10z"/>
<path d="M860 810 c0 -5 5 -10 10 -10 6 0 10 5 10 10 0 6 -4 10 -10 10 -5 0
-10 -4 -10 -10z"/>
<path d="M900 810 c0 -5 5 -10 10 -10 6 0 10 5 10 10 0 6 -4 10 -10 10 -5 0
-10 -4 -10 -10z"/>
<path d="M820 770 c0 -5 5 -10 10 -10 6 0 10 5 10 10 0 6 -4 10 -10 10 -5 0
-10 -4 -10 -10z"/>
<path d="M860 770 c0 -5 5 -10 10 -10 6 0 10 5 10 10 0 6 -4 10 -10 10 -5 0
-10 -4 -10 -10z"/>
<path d="M900 770 c0 -5 5 -10 10 -10 6 0 10 5 10 10 0 6 -4 10 -10 10 -5 0
-10 -4 -10 -10z"/>
<path d="M940 771 c0 -5 6 -12 13 -14 9 -4 8 -8 -3 -16 -8 -5 -11 -13 -7 -18
5 -4 12 -1 18 7 8 13 10 13 18 0 6 -8 13 -11 18 -7 4 5 1 12 -7 18 -13 8 -13
10 0 18 8 6 11 13 7 18 -5 4 -13 1 -18 -7 -8 -11 -12 -12 -16 -2 -5 14 -23 16
-23 3z"/>
<path d="M860 730 c0 -5 5 -10 10 -10 6 0 10 5 10 10 0 6 -4 10 -10 10 -5 0
-10 -4 -10 -10z"/>
<path d="M900 730 c0 -5 5 -10 10 -10 6 0 10 5 10 10 0 6 -4 10 -10 10 -5 0
-10 -4 -10 -10z"/>
<path d="M1020 730 c0 -5 5 -10 10 -10 6 0 10 5 10 10 0 6 -4 10 -10 10 -5 0
-10 -4 -10 -10z"/>
<path d="M860 690 c0 -5 5 -10 10 -10 6 0 10 5 10 10 0 6 -4 10 -10 10 -5 0
-10 -4 -10 -10z"/>
<path d="M900 690 c0 -5 5 -10 10 -10 6 0 10 5 10 10 0 6 -4 10 -10 10 -5 0
-10 -4 -10 -10z"/>
<path d="M940 690 c0 -5 5 -10 10 -10 6 0 10 5 10 10 0 6 -4 10 -10 10 -5 0
-10 -4 -10 -10z"/>
<path d="M980 690 c0 -5 5 -10 10 -10 6 0 10 5 10 10 0 6 -4 10 -10 10 -5 0
-10 -4 -10 -10z"/>
<path d="M1020 691 c0 -5 6 -12 13 -14 9 -4 8 -8 -3 -16 -8 -5 -11 -13 -7 -18
5 -4 12 -1 18 7 8 13 10 13 18 0 6 -8 13 -11 17 -8 3 4 -5 18 -19 32 -28 28
-37 32 -37 17z"/>
<path d="M820 650 c0 -5 5 -10 10 -10 6 0 10 5 10 10 0 6 -4 10 -10 10 -5 0
-10 -4 -10 -10z"/>
<path d="M860 650 c0 -5 5 -10 10 -10 6 0 10 5 10 10 0 6 -4 10 -10 10 -5 0
-10 -4 -10 -10z"/>
<path d="M900 650 c0 -5 5 -10 10 -10 6 0 10 5 10 10 0 6 -4 10 -10 10 -5 0
-10 -4 -10 -10z"/>
<path d="M940 650 c0 -5 5 -10 10 -10 6 0 10 5 10 10 0 6 -4 10 -10 10 -5 0
-10 -4 -10 -10z"/>
<path d="M980 650 c0 -5 5 -10 10 -10 6 0 10 5 10 10 0 6 -4 10 -10 10 -5 0
-10 -4 -10 -10z"/>
<path d="M780 611 c0 -5 6 -12 13 -14 9 -4 8 -8 -3 -16 -8 -5 -11 -13 -7 -18
5 -4 12 -1 18 7 8 13 10 13 18 0 6 -8 13 -11 18 -7 4 5 1 12 -7 18 -13 8 -13
10 0 18 8 6 11 13 7 18 -5 4 -13 1 -18 -7 -8 -11 -12 -12 -16 -2 -5 14 -23 16
-23 3z"/>
<path d="M860 610 c0 -5 5 -10 10 -10 6 0 10 5 10 10 0 6 -4 10 -10 10 -5 0
-10 -4 -10 -10z"/>
<path d="M900 610 c0 -5 5 -10 10 -10 6 0 10 5 10 10 0 6 -4 10 -10 10 -5 0
-10 -4 -10 -10z"/>
<path d="M940 611 c0 -5 6 -12 13 -14 9 -4 8 -8 -3 -16 -8 -5 -11 -13 -7 -18
5 -4 12 -1 18 7 8 13 10 13 18 0 6 -8 13 -11 18 -7 4 5 1 12 -7 18 -13 8 -13
10 0 18 8 6 11 13 7 18 -5 4 -13 1 -18 -7 -8 -11 -12 -12 -16 -2 -5 14 -23 16
-23 3z"/>
<path d="M1020 610 c0 -5 5 -10 10 -10 6 0 10 5 10 10 0 6 -4 10 -10 10 -5 0
-10 -4 -10 -10z"/>
<path d="M1060 610 c0 -5 5 -10 10 -10 6 0 10 5 10 10 0 6 -4 10 -10 10 -5 0
-10 -4 -10 -10z"/>
<path d="M260 570 c0 -5 5 -10 10 -10 6 0 10 5 10 10 0 6 -4 10 -10 10 -5 0
-10 -4 -10 -10z"/>
<path d="M860 570 c0 -5 5 -10 10 -10 6 0 10 5 10 10 0 6 -4 10 -10 10 -5 0
-10 -4 -10 -10z"/>
<path d="M900 570 c0 -5 5 -10 10 -10 6 0 10 5 10 10 0 6 -4 10 -10 10 -5 0
-10 -4 -10 -10z"/>
<path d="M1020 570 c0 -5 5 -10 10 -10 6 0 10 5 10 10 0 6 -4 10 -10 10 -5 0
-10 -4 -10 -10z"/>
<path d="M1060 571 c0 -5 6 -12 13 -14 9 -4 8 -8 -3 -16 -8 -5 -11 -13 -8 -17
4 -3 14 1 23 10 15 14 15 18 1 31 -17 17 -26 19 -26 6z"/>
<path d="M260 530 c0 -5 5 -10 10 -10 6 0 10 5 10 10 0 6 -4 10 -10 10 -5 0
-10 -4 -10 -10z"/>
<path d="M660 530 c0 -5 5 -10 10 -10 6 0 10 5 10 10 0 6 -4 10 -10 10 -5 0
-10 -4 -10 -10z"/>
<path d="M780 530 c0 -5 5 -10 10 -10 6 0 10 5 10 10 0 6 -4 10 -10 10 -5 0
-10 -4 -10 -10z"/>
<path d="M820 530 c0 -5 5 -10 10 -10 6 0 10 5 10 10 0 6 -4 10 -10 10 -5 0
-10 -4 -10 -10z"/>
<path d="M860 530 c0 -5 5 -10 10 -10 6 0 10 5 10 10 0 6 -4 10 -10 10 -5 0
-10 -4 -10 -10z"/>
<path d="M900 530 c0 -5 5 -10 10 -10 6 0 10 5 10 10 0 6 -4 10 -10 10 -5 0
-10 -4 -10 -10z"/>
<path d="M940 530 c0 -5 5 -10 10 -10 6 0 10 5 10 10 0 6 -4 10 -10 10 -5 0
-10 -4 -10 -10z"/>
<path d="M980 530 c0 -5 5 -10 10 -10 6 0 10 5 10 10 0 6 -4 10 -10 10 -5 0
-10 -4 -10 -10z"/>
<path d="M1020 530 c0 -5 5 -10 10 -10 6 0 10 5 10 10 0 6 -4 10 -10 10 -5 0
-10 -4 -10 -10z"/>
<path d="M220 490 c0 -5 5 -10 10 -10 6 0 10 5 10 10 0 6 -4 10 -10 10 -5 0
-10 -4 -10 -10z"/>
<path d="M260 490 c0 -5 5 -10 10 -10 6 0 10 5 10 10 0 6 -4 10 -10 10 -5 0
-10 -4 -10 -10z"/>
<path d="M660 490 c0 -5 5 -10 10 -10 6 0 10 5 10 10 0 6 -4 10 -10 10 -5 0
-10 -4 -10 -10z"/>
<path d="M820 490 c0 -5 5 -10 10 -10 6 0 10 5 10 10 0 6 -4 10 -10 10 -5 0
-10 -4 -10 -10z"/>
<path d="M860 490 c0 -5 5 -10 10 -10 6 0 10 5 10 10 0 6 -4 10 -10 10 -5 0
-10 -4 -10 -10z"/>
<path d="M900 490 c0 -5 5 -10 10 -10 6 0 10 5 10 10 0 6 -4 10 -10 10 -5 0
-10 -4 -10 -10z"/>
<path d="M940 490 c0 -5 5 -10 10 -10 6 0 10 5 10 10 0 6 -4 10 -10 10 -5 0
-10 -4 -10 -10z"/>
<path d="M980 490 c0 -5 5 -10 10 -10 6 0 10 5 10 10 0 6 -4 10 -10 10 -5 0
-10 -4 -10 -10z"/>
<path d="M1020 490 c0 -5 5 -10 10 -10 6 0 10 5 10 10 0 6 -4 10 -10 10 -5 0
-10 -4 -10 -10z"/>
<path d="M1060 491 c0 -5 6 -12 13 -14 9 -4 8 -8 -3 -16 -8 -5 -11 -13 -8 -17
4 -3 14 1 23 10 15 14 15 18 1 31 -17 17 -26 19 -26 6z"/>
<path d="M220 450 c0 -5 5 -10 10 -10 6 0 10 5 10 10 0 6 -4 10 -10 10 -5 0
-10 -4 -10 -10z"/>
<path d="M260 450 c0 -5 5 -10 10 -10 6 0 10 5 10 10 0 6 -4 10 -10 10 -5 0
-10 -4 -10 -10z"/>
<path d="M860 450 c0 -5 5 -10 10 -10 6 0 10 5 10 10 0 6 -4 10 -10 10 -5 0
-10 -4 -10 -10z"/>
<path d="M900 450 c0 -5 5 -10 10 -10 6 0 10 5 10 10 0 6 -4 10 -10 10 -5 0
-10 -4 -10 -10z"/>
<path d="M940 451 c0 -5 6 -12 13 -14 9 -4 8 -8 -3 -16 -8 -5 -11 -13 -7 -18
5 -4 12 -1 18 7 8 13 10 13 18 0 6 -8 13 -11 18 -7 4 5 1 12 -7 18 -13 8 -13
10 0 18 8 6 11 13 7 18 -5 4 -13 1 -18 -7 -8 -11 -12 -12 -16 -2 -5 14 -23 16
-23 3z"/>
<path d="M1020 450 c0 -5 5 -10 10 -10 6 0 10 5 10 10 0 6 -4 10 -10 10 -5 0
-10 -4 -10 -10z"/>
<path d="M220 410 c0 -5 5 -10 10 -10 6 0 10 5 10 10 0 6 -4 10 -10 10 -5 0
-10 -4 -10 -10z"/>
<path d="M260 410 c0 -5 5 -10 10 -10 6 0 10 5 10 10 0 6 -4 10 -10 10 -5 0
-10 -4 -10 -10z"/>
<path d="M860 410 c0 -5 5 -10 10 -10 6 0 10 5 10 10 0 6 -4 10 -10 10 -5 0
-10 -4 -10 -10z"/>
<path d="M900 410 c0 -5 5 -10 10 -10 6 0 10 5 10 10 0 6 -4 10 -10 10 -5 0
-10 -4 -10 -10z"/>
<path d="M1020 410 c0 -5 5 -10 10 -10 6 0 10 5 10 10 0 6 -4 10 -10 10 -5 0
-10 -4 -10 -10z"/>
<path d="M1060 410 c0 -5 5 -10 10 -10 6 0 10 5 10 10 0 6 -4 10 -10 10 -5 0
-10 -4 -10 -10z"/>
<path d="M220 370 c0 -5 5 -10 10 -10 6 0 10 5 10 10 0 6 -4 10 -10 10 -5 0
-10 -4 -10 -10z"/>
<path d="M260 370 c0 -5 5 -10 10 -10 6 0 10 5 10 10 0 6 -4 10 -10 10 -5 0
-10 -4 -10 -10z"/>
<path d="M300 370 c0 -5 5 -10 10 -10 6 0 10 5 10 10 0 6 -4 10 -10 10 -5 0
-10 -4 -10 -10z"/>
<path d="M340 370 c0 -5 5 -10 10 -10 6 0 10 5 10 10 0 6 -4 10 -10 10 -5 0
-10 -4 -10 -10z"/>
<path d="M380 370 c0 -5 5 -10 10 -10 6 0 10 5 10 10 0 6 -4 10 -10 10 -5 0
-10 -4 -10 -10z"/>
<path d="M420 370 c0 -5 5 -10 10 -10 6 0 10 5 10 10 0 6 -4 10 -10 10 -5 0
-10 -4 -10 -10z"/>
<path d="M460 370 c0 -5 5 -10 10 -10 6 0 10 5 10 10 0 6 -4 10 -10 10 -5 0
-10 -4 -10 -10z"/>
<path d="M803 355 c-28 -30 -29 -35 -3 -35 13 0 20 -7 20 -20 0 -15 7 -20 26
-20 15 0 35 -10 45 -22 11 -11 22 -18 26 -14 4 4 1 11 -7 17 -13 8 -13 10 0
19 13 9 13 11 0 20 -13 9 -13 11 0 20 13 9 13 11 0 20 -13 9 -13 11 0 19 8 6
11 13 7 18 -5 4 -12 1 -18 -7 -8 -13 -10 -13 -19 0 -9 13 -11 13 -21 0 -8 -11
-12 -12 -16 -2 -7 17 -15 14 -40 -13z"/>
<path d="M940 370 c0 -5 5 -10 10 -10 6 0 10 5 10 10 0 6 -4 10 -10 10 -5 0
-10 -4 -10 -10z"/>
<path d="M980 370 c0 -5 5 -10 10 -10 6 0 10 5 10 10 0 6 -4 10 -10 10 -5 0
-10 -4 -10 -10z"/>
<path d="M1020 371 c0 -5 6 -12 13 -14 9 -4 8 -8 -3 -16 -13 -10 -13 -12 0
-21 13 -9 13 -11 0 -19 -8 -6 -11 -13 -8 -17 4 -3 15 1 24 11 14 14 15 18 3
25 -11 7 -9 13 10 30 14 11 21 23 17 27 -4 4 -12 1 -17 -7 -8 -11 -12 -12 -16
-2 -5 14 -23 16 -23 3z"/>
<path d="M220 330 c0 -5 5 -10 10 -10 6 0 10 5 10 10 0 6 -4 10 -10 10 -5 0
-10 -4 -10 -10z"/>
<path d="M260 330 c0 -5 5 -10 10 -10 6 0 10 5 10 10 0 6 -4 10 -10 10 -5 0
-10 -4 -10 -10z"/>
<path d="M300 330 c0 -5 5 -10 10 -10 6 0 10 5 10 10 0 6 -4 10 -10 10 -5 0
-10 -4 -10 -10z"/>
<path d="M340 330 c0 -5 5 -10 10 -10 6 0 10 5 10 10 0 6 -4 10 -10 10 -5 0
-10 -4 -10 -10z"/>
<path d="M380 330 c0 -5 5 -10 10 -10 6 0 10 5 10 10 0 6 -4 10 -10 10 -5 0
-10 -4 -10 -10z"/>
<path d="M420 330 c0 -5 5 -10 10 -10 6 0 10 5 10 10 0 6 -4 10 -10 10 -5 0
-10 -4 -10 -10z"/>
<path d="M460 330 c0 -5 5 -10 10 -10 6 0 10 5 10 10 0 6 -4 10 -10 10 -5 0
-10 -4 -10 -10z"/>
<path d="M500 330 c0 -5 5 -10 10 -10 6 0 10 5 10 10 0 6 -4 10 -10 10 -5 0
-10 -4 -10 -10z"/>
<path d="M932 324 c-12 -13 -10 -18 9 -35 19 -17 21 -22 9 -29 -8 -5 -11 -12
-7 -17 5 -4 12 -1 17 6 7 12 11 11 25 -2 15 -16 15 -18 0 -34 -14 -13 -18 -14
-25 -2 -5 7 -12 10 -17 6 -4 -5 -1 -12 7 -18 13 -8 13 -10 0 -18 -8 -6 -11
-13 -8 -16 4 -4 23 9 43 30 l37 36 -23 20 c-19 17 -21 22 -9 29 8 5 11 12 7
17 -5 4 -12 1 -17 -6 -7 -12 -11 -11 -27 4 -13 13 -14 20 -5 23 13 4 17 22 5
22 -5 -1 -14 -8 -21 -16z"/>
<path d="M980 330 c0 -5 5 -10 10 -10 6 0 10 5 10 10 0 6 -4 10 -10 10 -5 0
-10 -4 -10 -10z"/>
<path d="M220 290 c0 -5 5 -10 10 -10 6 0 10 5 10 10 0 6 -4 10 -10 10 -5 0
-10 -4 -10 -10z"/>
<path d="M260 290 c0 -5 5 -10 10 -10 6 0 10 5 10 10 0 6 -4 10 -10 10 -5 0
-10 -4 -10 -10z"/>
<path d="M300 291 c0 -5 6 -12 13 -14 9 -4 8 -8 -3 -16 -8 -5 -11 -13 -7 -18
5 -4 12 -1 18 7 8 13 10 13 18 0 6 -8 13 -11 18 -7 4 5 1 12 -7 18 -13 8 -13
10 0 18 8 6 11 13 7 18 -5 4 -13 1 -18 -7 -8 -11 -12 -12 -16 -2 -5 14 -23 16
-23 3z"/>
<path d="M380 290 c0 -5 5 -10 10 -10 6 0 10 5 10 10 0 6 -4 10 -10 10 -5 0
-10 -4 -10 -10z"/>
<path d="M420 290 c0 -5 5 -10 10 -10 6 0 10 5 10 10 0 6 -4 10 -10 10 -5 0
-10 -4 -10 -10z"/>
<path d="M460 291 c0 -5 6 -12 13 -14 9 -4 8 -8 -3 -16 -8 -5 -11 -13 -7 -18
5 -4 12 -1 18 7 8 13 10 13 18 0 6 -8 13 -11 18 -7 4 5 1 12 -7 18 -13 8 -13
10 0 18 8 6 11 13 7 18 -5 4 -13 1 -18 -7 -8 -11 -12 -12 -16 -2 -5 14 -23 16
-23 3z"/>
<path d="M540 290 c0 -5 5 -10 10 -10 6 0 10 5 10 10 0 6 -4 10 -10 10 -5 0
-10 -4 -10 -10z"/>
<path d="M780 280 c0 -13 -7 -20 -19 -20 -11 0 -22 -6 -24 -12 -4 -10 -8 -9
-16 2 -5 8 -13 11 -18 7 -4 -5 -1 -12 6 -17 12 -7 11 -11 -3 -26 -15 -14 -19
-15 -27 -3 -8 12 -10 12 -19 -1 -9 -13 -11 -13 -19 0 -6 8 -13 11 -18 7 -4 -5
-1 -13 7 -18 11 -8 12 -12 3 -16 -8 -3 -13 -24 -13 -54 0 -48 1 -49 30 -49 17
0 30 5 30 10 0 6 5 10 10 10 6 0 10 -13 10 -30 0 -30 14 -41 23 -17 4 9 8 8
16 -3 5 -8 14 -11 18 -6 4 5 2 11 -4 13 -24 9 -13 23 16 23 16 0 32 6 34 13 4
9 8 8 16 -3 5 -8 13 -11 18 -7 4 5 1 12 -6 17 -12 7 -11 11 3 26 15 14 19 15
26 3 5 -7 12 -10 17 -6 4 5 1 12 -7 18 -13 8 -13 10 0 19 13 9 13 11 0 20 -13
9 -13 11 0 20 13 9 13 11 0 21 -11 8 -12 12 -2 16 22 9 13 23 -16 23 -16 0
-34 8 -42 20 -8 11 -18 20 -22 20 -4 0 -8 -9 -8 -20z"/>
<path d="M260 250 c0 -5 5 -10 10 -10 6 0 10 5 10 10 0 6 -4 10 -10 10 -5 0
-10 -4 -10 -10z"/>
<path d="M380 250 c0 -5 5 -10 10 -10 6 0 10 5 10 10 0 6 -4 10 -10 10 -5 0
-10 -4 -10 -10z"/>
<path d="M420 250 c0 -5 5 -10 10 -10 6 0 10 5 10 10 0 6 -4 10 -10 10 -5 0
-10 -4 -10 -10z"/>
<path d="M540 250 c0 -5 5 -10 10 -10 6 0 10 5 10 10 0 6 -4 10 -10 10 -5 0
-10 -4 -10 -10z"/>
<path d="M580 250 c0 -5 5 -10 10 -10 6 0 10 5 10 10 0 6 -4 10 -10 10 -5 0
-10 -4 -10 -10z"/>
<path d="M300 210 c0 -5 5 -10 10 -10 6 0 10 5 10 10 0 6 -4 10 -10 10 -5 0
-10 -4 -10 -10z"/>
<path d="M340 210 c0 -5 5 -10 10 -10 6 0 10 5 10 10 0 6 -4 10 -10 10 -5 0
-10 -4 -10 -10z"/>
<path d="M380 210 c0 -5 5 -10 10 -10 6 0 10 5 10 10 0 6 -4 10 -10 10 -5 0
-10 -4 -10 -10z"/>
<path d="M420 210 c0 -5 5 -10 10 -10 6 0 10 5 10 10 0 6 -4 10 -10 10 -5 0
-10 -4 -10 -10z"/>
<path d="M460 210 c0 -5 5 -10 10 -10 6 0 10 5 10 10 0 6 -4 10 -10 10 -5 0
-10 -4 -10 -10z"/>
<path d="M500 210 c0 -5 5 -10 10 -10 6 0 10 5 10 10 0 6 -4 10 -10 10 -5 0
-10 -4 -10 -10z"/>
<path d="M540 210 c0 -5 5 -10 10 -10 6 0 10 5 10 10 0 6 -4 10 -10 10 -5 0
-10 -4 -10 -10z"/>
<path d="M580 210 c0 -5 5 -10 10 -10 6 0 10 5 10 10 0 6 -4 10 -10 10 -5 0
-10 -4 -10 -10z"/>
<path d="M900 210 c0 -5 5 -10 10 -10 6 0 10 5 10 10 0 6 -4 10 -10 10 -5 0
-10 -4 -10 -10z"/>
<path d="M300 170 c0 -5 5 -10 10 -10 6 0 10 5 10 10 0 6 -4 10 -10 10 -5 0
-10 -4 -10 -10z"/>
<path d="M340 170 c0 -5 5 -10 10 -10 6 0 10 5 10 10 0 6 -4 10 -10 10 -5 0
-10 -4 -10 -10z"/>
<path d="M380 170 c0 -5 5 -10 10 -10 6 0 10 5 10 10 0 6 -4 10 -10 10 -5 0
-10 -4 -10 -10z"/>
<path d="M420 170 c0 -5 5 -10 10 -10 6 0 10 5 10 10 0 6 -4 10 -10 10 -5 0
-10 -4 -10 -10z"/>
<path d="M460 170 c0 -5 5 -10 10 -10 6 0 10 5 10 10 0 6 -4 10 -10 10 -5 0
-10 -4 -10 -10z"/>
<path d="M500 170 c0 -5 5 -10 10 -10 6 0 10 5 10 10 0 6 -4 10 -10 10 -5 0
-10 -4 -10 -10z"/>
<path d="M540 170 c0 -5 5 -10 10 -10 6 0 10 5 10 10 0 6 -4 10 -10 10 -5 0
-10 -4 -10 -10z"/>
<path d="M580 170 c0 -5 5 -10 10 -10 6 0 10 5 10 10 0 6 -4 10 -10 10 -5 0
-10 -4 -10 -10z"/>
<path d="M900 170 c0 -5 5 -10 10 -10 6 0 10 5 10 10 0 6 -4 10 -10 10 -5 0
-10 -4 -10 -10z"/>
<path d="M300 131 c0 -5 6 -12 13 -14 9 -4 8 -8 -3 -16 -8 -5 -11 -13 -7 -18
5 -4 12 -1 18 7 8 13 10 13 18 0 6 -8 13 -11 18 -7 4 5 1 12 -7 18 -13 8 -13
10 0 18 8 6 11 13 7 18 -5 4 -13 1 -18 -7 -8 -11 -12 -12 -16 -2 -5 14 -23 16
-23 3z"/>
<path d="M380 130 c0 -5 5 -10 10 -10 6 0 10 5 10 10 0 6 -4 10 -10 10 -5 0
-10 -4 -10 -10z"/>
<path d="M420 130 c0 -5 5 -10 10 -10 6 0 10 5 10 10 0 6 -4 10 -10 10 -5 0
-10 -4 -10 -10z"/>
<path d="M460 131 c0 -5 6 -12 13 -14 9 -4 8 -8 -3 -16 -8 -5 -11 -13 -7 -18
5 -4 12 -1 18 7 8 13 10 13 18 0 6 -8 13 -11 18 -7 4 5 1 12 -7 18 -13 8 -13
10 0 18 8 6 11 13 7 18 -5 4 -13 1 -18 -7 -8 -11 -12 -12 -16 -2 -5 14 -23 16
-23 3z"/>
<path d="M540 130 c0 -5 5 -10 10 -10 6 0 10 5 10 10 0 6 -4 10 -10 10 -5 0
-10 -4 -10 -10z"/>
<path d="M580 130 c0 -5 5 -10 10 -10 6 0 10 5 10 10 0 6 -4 10 -10 10 -5 0
-10 -4 -10 -10z"/>
<path d="M900 130 c0 -5 5 -10 10 -10 6 0 10 5 10 10 0 6 -4 10 -10 10 -5 0
-10 -4 -10 -10z"/>
<path d="M260 90 c0 -5 5 -10 10 -10 6 0 10 5 10 10 0 6 -4 10 -10 10 -5 0
-10 -4 -10 -10z"/>
<path d="M380 90 c0 -5 5 -10 10 -10 6 0 10 5 10 10 0 6 -4 10 -10 10 -5 0
-10 -4 -10 -10z"/>
<path d="M420 90 c0 -5 5 -10 10 -10 6 0 10 5 10 10 0 6 -4 10 -10 10 -5 0
-10 -4 -10 -10z"/>
<path d="M540 90 c0 -5 5 -10 10 -10 6 0 10 5 10 10 0 6 -4 10 -10 10 -5 0
-10 -4 -10 -10z"/>
<path d="M580 90 c0 -5 5 -10 10 -10 6 0 10 5 10 10 0 6 -4 10 -10 10 -5 0
-10 -4 -10 -10z"/>
<path d="M860 90 c0 -5 5 -10 10 -10 6 0 10 5 10 10 0 6 -4 10 -10 10 -5 0
-10 -4 -10 -10z"/>
<path d="M260 50 c0 -5 5 -10 10 -10 6 0 10 5 10 10 0 6 -4 10 -10 10 -5 0
-10 -4 -10 -10z"/>
<path d="M300 55 c0 -12 52 -57 58 -51 3 4 0 11 -8 17 -13 8 -13 10 0 18 8 6
11 13 7 18 -5 4 -13 1 -18 -7 -8 -11 -12 -12 -16 -2 -5 12 -23 17 -23 7z"/>
<path d="M380 50 c0 -5 5 -10 10 -10 6 0 10 5 10 10 0 6 -4 10 -10 10 -5 0
-10 -4 -10 -10z"/>
<path d="M420 50 c0 -5 5 -10 10 -10 6 0 10 5 10 10 0 6 -4 10 -10 10 -5 0
-10 -4 -10 -10z"/>
<path d="M460 50 c0 -5 5 -10 10 -10 6 0 10 5 10 10 0 6 -4 10 -10 10 -5 0
-10 -4 -10 -10z"/>
<path d="M500 50 c0 -5 5 -10 10 -10 6 0 10 5 10 10 0 6 -4 10 -10 10 -5 0
-10 -4 -10 -10z"/>
<path d="M540 50 c0 -5 5 -10 10 -10 6 0 10 5 10 10 0 6 -4 10 -10 10 -5 0
-10 -4 -10 -10z"/>
<path d="M580 50 c0 -5 5 -10 10 -10 6 0 10 5 10 10 0 6 -4 10 -10 10 -5 0
-10 -4 -10 -10z"/>
<path d="M620 50 c0 -5 5 -10 10 -10 6 0 10 5 10 10 0 6 -4 10 -10 10 -5 0
-10 -4 -10 -10z"/>
<path d="M660 50 c0 -5 5 -10 10 -10 6 0 10 5 10 10 0 6 -4 10 -10 10 -5 0
-10 -4 -10 -10z"/>
<path d="M780 50 c0 -5 5 -10 10 -10 6 0 10 5 10 10 0 6 -4 10 -10 10 -5 0
-10 -4 -10 -10z"/>
<path d="M820 50 c0 -5 5 -10 10 -10 6 0 10 5 10 10 0 6 -4 10 -10 10 -5 0
-10 -4 -10 -10z"/>
<path d="M380 10 c0 -5 5 -10 10 -10 6 0 10 5 10 10 0 6 -4 10 -10 10 -5 0
-10 -4 -10 -10z"/>
<path d="M420 10 c0 -5 5 -10 10 -10 6 0 10 5 10 10 0 6 -4 10 -10 10 -5 0
-10 -4 -10 -10z"/>
<path d="M460 10 c0 -5 5 -10 10 -10 6 0 10 5 10 10 0 6 -4 10 -10 10 -5 0
-10 -4 -10 -10z"/>
<path d="M500 10 c0 -5 5 -10 10 -10 6 0 10 5 10 10 0 6 -4 10 -10 10 -5 0
-10 -4 -10 -10z"/>
<path d="M540 10 c0 -5 5 -10 10 -10 6 0 10 5 10 10 0 6 -4 10 -10 10 -5 0
-10 -4 -10 -10z"/>
<path d="M580 10 c0 -5 5 -10 10 -10 6 0 10 5 10 10 0 6 -4 10 -10 10 -5 0
-10 -4 -10 -10z"/>
<path d="M620 10 c0 -5 5 -10 10 -10 6 0 10 5 10 10 0 6 -4 10 -10 10 -5 0
-10 -4 -10 -10z"/>
<path d="M660 10 c0 -5 5 -10 10 -10 6 0 10 5 10 10 0 6 -4 10 -10 10 -5 0
-10 -4 -10 -10z"/>
<path d="M700 10 c0 -5 5 -10 10 -10 6 0 10 5 10 10 0 6 -4 10 -10 10 -5 0
-10 -4 -10 -10z"/>
<path d="M740 10 c0 -5 5 -10 10 -10 6 0 10 5 10 10 0 6 -4 10 -10 10 -5 0
-10 -4 -10 -10z"/>
</g>
</svg>
