<?xml version="1.0" standalone="no"?>
<!DOCTYPE svg PUBLIC "-//W3C//DTD SVG 20010904//EN"
 "http://www.w3.org/TR/2001/REC-SVG-20010904/DTD/svg10.dtd">
<svg version="1.0" xmlns="http://www.w3.org/2000/svg"
 width="106.000000pt" height="104.000000pt" viewBox="0 0 106.000000 104.000000"
 preserveAspectRatio="xMidYMid meet">

<g transform="translate(0.000000,104.000000) scale(0.100000,-0.100000)"
fill="#000000" stroke="none">
<path d="M381 1014 c-12 -14 -20 -28 -16 -32 3 -3 10 0 16 8 8 13 10 13 18 0
6 -8 13 -11 18 -7 4 5 1 13 -7 18 -11 8 -12 12 -2 16 13 5 17 23 5 22 -5 0
-19 -11 -32 -25z"/>
<path d="M440 1030 c0 -5 5 -10 10 -10 6 0 10 5 10 10 0 6 -4 10 -10 10 -5 0
-10 -4 -10 -10z"/>
<path d="M480 1030 c0 -5 5 -10 10 -10 6 0 10 5 10 10 0 6 -4 10 -10 10 -5 0
-10 -4 -10 -10z"/>
<path d="M520 1031 c0 -5 6 -11 12 -13 9 -3 8 -10 -5 -23 -16 -15 -20 -16 -27
-4 -5 7 -13 10 -17 5 -4 -5 -2 -11 5 -13 23 -9 12 -23 -17 -23 -16 0 -32 -6
-34 -12 -4 -10 -8 -9 -16 2 -10 13 -12 13 -21 0 -9 -13 -11 -13 -20 0 -9 13
-11 13 -20 0 -9 -13 -11 -13 -20 0 -9 13 -11 13 -19 0 -8 -12 -13 -11 -30 9
-19 22 -21 22 -37 7 -9 -9 -13 -20 -9 -24 4 -4 10 -1 12 6 7 19 23 14 23 -8 0
-13 -7 -20 -19 -20 -11 0 -22 -6 -24 -12 -4 -10 -8 -9 -16 2 -5 8 -13 11 -18
7 -4 -5 -1 -12 7 -18 13 -8 13 -10 0 -18 -8 -6 -11 -13 -7 -18 5 -4 12 -1 17
6 7 12 11 11 25 -2 15 -16 15 -18 0 -34 -14 -13 -18 -14 -25 -2 -5 7 -12 10
-17 6 -4 -5 -1 -13 7 -18 11 -8 12 -12 3 -16 -7 -2 -13 -13 -13 -24 0 -12 -7
-19 -20 -19 -22 0 -27 -15 -7 -23 9 -4 8 -8 -3 -16 -13 -10 -13 -12 0 -21 13
-9 13 -11 0 -20 -13 -9 -13 -11 0 -20 13 -9 13 -11 0 -20 -13 -9 -13 -11 0
-19 8 -6 11 -13 7 -17 -4 -4 -16 3 -27 16 -11 13 -23 20 -27 16 -4 -4 -1 -11
7 -17 13 -8 13 -10 0 -18 -8 -6 -11 -13 -7 -18 5 -4 13 -1 18 7 8 11 12 12 16
3 2 -7 13 -13 24 -13 12 0 19 -7 19 -19 0 -11 6 -22 13 -24 9 -4 8 -8 -3 -16
-8 -5 -11 -13 -7 -18 5 -4 13 -1 18 7 8 11 12 12 16 3 2 -7 18 -13 34 -13 29
0 40 -14 17 -23 -7 -2 -9 -8 -5 -13 4 -5 12 -2 17 5 7 12 11 11 26 -3 14 -15
15 -19 3 -26 -7 -5 -10 -12 -6 -17 5 -4 13 -1 18 7 8 11 12 12 16 3 2 -7 18
-13 34 -13 33 0 36 -5 13 -27 -13 -14 -17 -14 -24 -2 -5 7 -12 10 -17 6 -4 -5
-1 -12 7 -18 13 -8 13 -10 0 -19 -13 -9 -13 -11 0 -20 13 -9 13 -11 0 -19 -8
-6 -11 -14 -6 -18 5 -4 11 -2 13 5 9 23 23 12 23 -17 0 -16 6 -31 12 -33 9 -3
8 -10 -5 -23 -16 -15 -20 -16 -27 -4 -5 7 -12 10 -17 6 -4 -5 -1 -12 7 -18 13
-8 13 -10 0 -18 -8 -6 -11 -13 -7 -18 5 -4 12 -1 18 7 8 13 10 13 18 0 6 -8
13 -11 18 -7 4 5 1 12 -6 17 -12 7 -11 11 2 25 16 15 18 15 34 0 13 -14 14
-18 2 -25 -7 -5 -10 -12 -6 -17 5 -4 12 -1 17 6 7 12 11 11 26 -3 14 -15 15
-19 3 -27 -12 -8 -12 -10 1 -19 13 -9 13 -11 0 -20 -13 -9 -13 -11 0 -20 13
-9 13 -11 0 -20 -13 -9 -13 -11 0 -20 13 -9 13 -11 0 -19 -8 -6 -11 -14 -6
-18 5 -4 11 -2 13 5 7 19 23 14 23 -8 0 -24 25 -26 48 -3 12 12 13 18 4 21
-23 7 -12 22 18 22 30 0 41 15 18 22 -9 3 -8 10 5 23 16 15 20 16 27 4 5 -7
12 -10 17 -6 4 5 1 12 -6 17 -12 7 -11 11 3 26 15 14 19 15 26 3 5 -7 12 -10
17 -6 4 5 1 12 -6 17 -12 7 -11 11 3 26 15 14 19 15 26 3 5 -7 12 -10 17 -6 4
5 1 13 -7 18 -11 8 -12 12 -2 16 6 2 12 18 12 34 0 29 14 40 23 17 2 -7 8 -9
13 -5 5 4 2 13 -6 18 -11 8 -12 12 -2 16 19 8 14 23 -8 23 -13 0 -20 7 -20 19
0 11 -6 22 -12 24 -10 4 -9 8 2 16 8 5 11 13 7 18 -5 4 -12 1 -18 -7 -8 -13
-10 -13 -18 0 -6 8 -13 11 -17 7 -4 -4 3 -16 16 -27 13 -11 20 -23 15 -28 -4
-4 -10 -1 -12 6 -3 6 -13 12 -24 12 -10 0 -19 7 -19 15 0 25 -46 65 -75 65
-26 0 -34 15 -12 23 6 2 8 8 4 13 -4 5 -12 2 -17 -5 -7 -12 -11 -11 -25 2 -15
16 -15 18 0 34 14 13 18 14 25 2 5 -7 12 -10 17 -6 4 5 1 12 -7 18 -13 8 -13
10 0 18 8 6 11 13 7 18 -5 4 -13 1 -18 -7 -8 -11 -12 -12 -16 -2 -2 7 -22 12
-44 12 -32 0 -39 3 -39 20 0 22 -16 27 -23 8 -2 -7 -8 -10 -12 -6 -4 4 0 15 9
24 16 15 18 15 36 -7 11 -12 23 -19 27 -15 4 4 1 11 -7 17 -13 8 -13 10 0 18
8 6 11 13 7 18 -5 4 -12 1 -17 -6 -7 -12 -11 -11 -25 2 -15 16 -15 18 0 34 14
13 18 14 25 2 5 -7 12 -10 17 -6 4 5 1 12 -6 17 -20 12 30 60 63 60 13 0 27 6
29 13 4 9 8 8 16 -3 5 -8 13 -11 18 -7 4 5 1 12 -6 17 -12 7 -11 11 3 26 15
14 19 15 27 3 8 -12 10 -12 19 1 9 13 11 13 19 0 6 -8 13 -11 18 -7 4 5 1 12
-6 17 -12 7 -11 11 3 26 15 14 19 15 26 3 5 -7 12 -10 17 -6 4 5 1 12 -7 18
-13 8 -13 10 0 18 8 6 11 13 7 18 -5 4 -12 1 -17 -7 -5 -8 -12 -11 -16 -8 -3
4 12 25 35 47 22 22 41 42 41 45 0 3 -12 6 -26 6 -27 0 -61 26 -50 38 4 3 11
0 16 -8 5 -8 12 -11 16 -8 3 4 -1 15 -10 24 -16 15 -18 15 -37 -7 -17 -20 -22
-21 -30 -9 -8 13 -10 13 -19 0 -9 -13 -11 -13 -20 0 -9 13 -11 13 -19 1 -8
-12 -12 -11 -27 3 -14 15 -15 19 -3 26 7 5 10 12 6 17 -5 4 -13 1 -18 -7 -8
-11 -12 -12 -16 -2 -5 14 -23 16 -23 3z m40 -51 c0 -13 -7 -20 -20 -20 -23 0
-25 5 -7 25 17 20 27 18 27 -5z m100 -50 c0 -5 -4 -10 -10 -10 -5 0 -10 -4
-10 -10 0 -5 9 -10 20 -10 13 0 20 -7 20 -19 0 -11 6 -21 12 -23 9 -3 8 -9 -5
-22 -16 -16 -18 -16 -34 -1 -13 14 -14 18 -2 25 7 5 10 12 6 17 -5 4 -12 1
-17 -6 -7 -12 -11 -12 -25 2 -15 15 -14 18 7 41 25 27 38 32 38 16z m-120 -36
c0 -7 -27 -34 -34 -34 -3 0 -6 9 -6 20 0 13 7 20 20 20 11 0 20 -3 20 -6z
m-217 -266 c4 -10 8 -9 16 2 10 13 12 13 21 0 9 -13 11 -13 19 0 6 8 13 11 18
7 4 -5 1 -12 -7 -18 -13 -8 -13 -10 0 -19 13 -9 13 -11 1 -19 -20 -13 9 -41
43 -41 27 0 36 -15 14 -23 -7 -2 -9 -8 -5 -13 4 -5 12 -2 18 6 8 13 10 13 18
0 6 -8 14 -11 18 -6 4 5 2 11 -4 13 -24 9 -13 23 17 23 17 0 30 -2 30 -5 0
-16 -53 -55 -75 -55 -18 0 -25 -5 -25 -20 0 -23 -25 -27 -46 -6 -8 8 -14 26
-14 39 0 14 -6 28 -12 30 -10 4 -10 8 1 15 11 8 9 15 -13 37 l-27 27 -20 -23
c-10 -12 -22 -19 -27 -14 -4 4 -1 10 6 12 6 3 12 18 12 34 0 29 14 39 23 17z"/>
<path d="M360 590 c0 -5 5 -10 10 -10 6 0 10 5 10 10 0 6 -4 10 -10 10 -5 0
-10 -4 -10 -10z"/>
<path d="M380 534 c0 -10 31 -36 37 -31 3 3 -2 13 -10 22 -16 15 -27 19 -27 9z"/>
<path d="M400 470 c0 -5 5 -10 10 -10 6 0 10 5 10 10 0 6 -4 10 -10 10 -5 0
-10 -4 -10 -10z"/>
<path d="M600 1030 c0 -5 5 -10 10 -10 6 0 10 5 10 10 0 6 -4 10 -10 10 -5 0
-10 -4 -10 -10z"/>
<path d="M320 990 c0 -5 5 -10 10 -10 6 0 10 5 10 10 0 6 -4 10 -10 10 -5 0
-10 -4 -10 -10z"/>
<path d="M440 990 c0 -5 5 -10 10 -10 6 0 10 5 10 10 0 6 -4 10 -10 10 -5 0
-10 -4 -10 -10z"/>
<path d="M783 935 c-30 -31 -29 -35 7 -35 17 0 30 5 30 10 0 6 5 10 10 10 6 0
10 -22 10 -50 0 -43 3 -50 20 -50 13 0 20 -7 20 -19 0 -11 6 -22 13 -24 9 -4
8 -8 -3 -16 -13 -9 -13 -12 -1 -20 12 -8 11 -12 -3 -27 -15 -14 -19 -15 -26
-3 -5 7 -12 10 -17 6 -4 -5 -1 -12 7 -18 13 -8 13 -10 0 -18 -8 -6 -11 -13 -7
-18 5 -4 12 -1 18 7 8 13 10 13 18 0 6 -8 14 -11 18 -6 4 5 2 11 -4 13 -20 7
-15 23 7 23 27 0 26 -28 -2 -52 -19 -16 -20 -21 -8 -29 11 -8 12 -12 3 -16 -7
-2 -13 -18 -13 -34 0 -29 -14 -40 -23 -16 -2 6 -8 8 -13 4 -5 -4 -2 -12 6 -18
13 -8 13 -10 0 -18 -8 -6 -11 -14 -6 -18 5 -4 11 -2 13 5 9 23 23 12 23 -17 0
-16 6 -32 13 -34 9 -4 8 -8 -3 -16 -13 -9 -13 -12 -1 -20 12 -8 11 -12 -3 -27
-15 -14 -19 -15 -26 -3 -5 7 -12 10 -17 6 -4 -5 -1 -12 7 -18 13 -8 13 -10 0
-18 -8 -6 -11 -13 -7 -18 5 -4 12 -1 18 7 8 13 10 13 18 0 6 -8 13 -11 18 -7
4 5 1 12 -6 17 -12 7 -11 11 3 26 15 14 19 15 27 3 8 -12 10 -12 19 1 9 13 11
13 21 0 8 -11 12 -12 16 -2 9 23 23 12 23 -18 0 -30 -14 -41 -23 -17 -2 6 -8
8 -13 4 -5 -4 -2 -12 6 -18 13 -8 13 -10 0 -19 -13 -9 -13 -11 0 -21 11 -8 12
-12 3 -16 -7 -2 -13 -13 -13 -24 0 -12 -7 -19 -20 -19 -22 0 -27 -16 -8 -22 9
-3 8 -9 -5 -22 -16 -16 -18 -16 -34 -1 -13 14 -14 18 -2 25 7 5 10 12 6 17 -5
4 -12 1 -18 -7 -8 -13 -10 -13 -18 0 -6 8 -13 11 -18 7 -4 -5 -1 -12 7 -18 13
-8 13 -10 0 -18 -8 -6 -11 -13 -7 -18 5 -4 12 -1 17 6 7 12 11 11 25 -2 15
-16 15 -18 0 -34 -14 -13 -18 -14 -25 -2 -5 7 -12 10 -17 6 -4 -5 -1 -13 7
-18 11 -8 12 -12 3 -16 -22 -8 -14 -23 13 -23 27 0 54 20 54 40 0 6 18 29 40
50 26 25 40 47 40 64 0 14 5 26 10 26 6 0 10 7 10 16 0 9 10 25 22 36 19 16
20 21 8 29 -11 8 -12 12 -2 16 15 6 18 263 2 263 -5 0 -10 9 -10 20 0 13 -7
20 -20 20 -22 0 -27 15 -7 24 10 5 10 7 0 12 -7 3 -13 17 -13 31 0 15 -12 36
-30 53 -16 15 -30 35 -30 44 0 9 -4 16 -10 16 -5 0 -10 9 -10 20 0 13 -7 20
-20 20 -11 0 -20 5 -20 10 0 6 -8 10 -18 10 -10 0 -24 9 -32 20 -18 25 -20 24
-47 -5z m37 -5 c0 -5 -4 -10 -10 -10 -5 0 -10 5 -10 10 0 6 5 10 10 10 6 0 10
-4 10 -10z"/>
<path d="M120 870 c0 -5 5 -10 10 -10 6 0 10 5 10 10 0 6 -4 10 -10 10 -5 0
-10 -4 -10 -10z"/>
<path d="M160 870 c0 -5 5 -10 10 -10 6 0 10 5 10 10 0 6 -4 10 -10 10 -5 0
-10 -4 -10 -10z"/>
<path d="M760 870 c0 -5 5 -10 10 -10 6 0 10 5 10 10 0 6 -4 10 -10 10 -5 0
-10 -4 -10 -10z"/>
<path d="M800 870 c0 -5 5 -10 10 -10 6 0 10 5 10 10 0 6 -4 10 -10 10 -5 0
-10 -4 -10 -10z"/>
<path d="M120 830 c0 -5 5 -10 10 -10 6 0 10 5 10 10 0 6 -4 10 -10 10 -5 0
-10 -4 -10 -10z"/>
<path d="M160 830 c0 -5 5 -10 10 -10 6 0 10 5 10 10 0 6 -4 10 -10 10 -5 0
-10 -4 -10 -10z"/>
<path d="M760 830 c0 -5 5 -10 10 -10 6 0 10 5 10 10 0 6 -4 10 -10 10 -5 0
-10 -4 -10 -10z"/>
<path d="M800 830 c0 -5 5 -10 10 -10 6 0 10 5 10 10 0 6 -4 10 -10 10 -5 0
-10 -4 -10 -10z"/>
<path d="M61 774 c-12 -14 -20 -28 -16 -32 3 -3 10 0 16 8 8 13 10 13 18 0 6
-8 13 -11 18 -7 4 5 1 13 -7 18 -11 8 -12 12 -2 16 13 5 17 23 5 22 -5 0 -19
-11 -32 -25z"/>
<path d="M120 790 c0 -5 5 -10 10 -10 6 0 10 5 10 10 0 6 -4 10 -10 10 -5 0
-10 -4 -10 -10z"/>
<path d="M160 790 c0 -5 5 -10 10 -10 6 0 10 5 10 10 0 6 -4 10 -10 10 -5 0
-10 -4 -10 -10z"/>
<path d="M720 790 c0 -5 5 -10 10 -10 6 0 10 5 10 10 0 6 -4 10 -10 10 -5 0
-10 -4 -10 -10z"/>
<path d="M760 790 c0 -5 5 -10 10 -10 6 0 10 5 10 10 0 6 -4 10 -10 10 -5 0
-10 -4 -10 -10z"/>
<path d="M800 790 c0 -5 5 -10 10 -10 6 0 10 5 10 10 0 6 -4 10 -10 10 -5 0
-10 -4 -10 -10z"/>
<path d="M840 790 c0 -5 5 -10 10 -10 6 0 10 5 10 10 0 6 -4 10 -10 10 -5 0
-10 -4 -10 -10z"/>
<path d="M120 750 c0 -5 5 -10 10 -10 6 0 10 5 10 10 0 6 -4 10 -10 10 -5 0
-10 -4 -10 -10z"/>
<path d="M640 750 c0 -5 5 -10 10 -10 6 0 10 5 10 10 0 6 -4 10 -10 10 -5 0
-10 -4 -10 -10z"/>
<path d="M680 750 c0 -5 5 -10 10 -10 6 0 10 5 10 10 0 6 -4 10 -10 10 -5 0
-10 -4 -10 -10z"/>
<path d="M720 750 c0 -5 5 -10 10 -10 6 0 10 5 10 10 0 6 -4 10 -10 10 -5 0
-10 -4 -10 -10z"/>
<path d="M760 750 c0 -5 5 -10 10 -10 6 0 10 5 10 10 0 6 -4 10 -10 10 -5 0
-10 -4 -10 -10z"/>
<path d="M800 750 c0 -5 5 -10 10 -10 6 0 10 5 10 10 0 6 -4 10 -10 10 -5 0
-10 -4 -10 -10z"/>
<path d="M840 750 c0 -5 5 -10 10 -10 6 0 10 5 10 10 0 6 -4 10 -10 10 -5 0
-10 -4 -10 -10z"/>
<path d="M40 711 c0 -5 6 -12 13 -14 9 -4 8 -8 -3 -16 -8 -5 -11 -13 -7 -18 5
-4 12 -1 18 7 8 13 10 13 18 0 6 -8 13 -11 18 -7 4 5 1 12 -7 18 -13 8 -13 10
0 18 8 6 11 13 7 18 -5 4 -13 1 -18 -7 -8 -11 -12 -12 -16 -2 -5 14 -23 16
-23 3z"/>
<path d="M120 710 c0 -5 5 -10 10 -10 6 0 10 5 10 10 0 6 -4 10 -10 10 -5 0
-10 -4 -10 -10z"/>
<path d="M520 711 c0 -5 6 -12 13 -14 9 -4 8 -8 -3 -16 -8 -5 -11 -13 -7 -18
5 -4 12 -1 18 7 8 13 10 13 18 0 6 -8 13 -11 18 -7 4 5 1 12 -7 18 -13 8 -13
10 0 18 8 6 11 13 7 18 -5 4 -13 1 -18 -7 -8 -11 -12 -12 -16 -2 -5 14 -23 16
-23 3z"/>
<path d="M600 710 c0 -5 5 -10 10 -10 6 0 10 5 10 10 0 6 -4 10 -10 10 -5 0
-10 -4 -10 -10z"/>
<path d="M640 710 c0 -5 5 -10 10 -10 6 0 10 5 10 10 0 6 -4 10 -10 10 -5 0
-10 -4 -10 -10z"/>
<path d="M680 710 c0 -5 5 -10 10 -10 6 0 10 5 10 10 0 6 -4 10 -10 10 -5 0
-10 -4 -10 -10z"/>
<path d="M720 710 c0 -5 5 -10 10 -10 6 0 10 5 10 10 0 6 -4 10 -10 10 -5 0
-10 -4 -10 -10z"/>
<path d="M760 710 c0 -5 5 -10 10 -10 6 0 10 5 10 10 0 6 -4 10 -10 10 -5 0
-10 -4 -10 -10z"/>
<path d="M800 710 c0 -5 5 -10 10 -10 6 0 10 5 10 10 0 6 -4 10 -10 10 -5 0
-10 -4 -10 -10z"/>
<path d="M120 670 c0 -5 5 -10 10 -10 6 0 10 5 10 10 0 6 -4 10 -10 10 -5 0
-10 -4 -10 -10z"/>
<path d="M600 670 c0 -5 5 -10 10 -10 6 0 10 5 10 10 0 6 -4 10 -10 10 -5 0
-10 -4 -10 -10z"/>
<path d="M640 670 c0 -5 5 -10 10 -10 6 0 10 5 10 10 0 6 -4 10 -10 10 -5 0
-10 -4 -10 -10z"/>
<path d="M680 670 c0 -5 5 -10 10 -10 6 0 10 5 10 10 0 6 -4 10 -10 10 -5 0
-10 -4 -10 -10z"/>
<path d="M720 670 c0 -5 5 -10 10 -10 6 0 10 5 10 10 0 6 -4 10 -10 10 -5 0
-10 -4 -10 -10z"/>
<path d="M760 670 c0 -5 5 -10 10 -10 6 0 10 5 10 10 0 6 -4 10 -10 10 -5 0
-10 -4 -10 -10z"/>
<path d="M800 670 c0 -5 5 -10 10 -10 6 0 10 5 10 10 0 6 -4 10 -10 10 -5 0
-10 -4 -10 -10z"/>
<path d="M0 630 c0 -5 5 -10 10 -10 6 0 10 5 10 10 0 6 -4 10 -10 10 -5 0 -10
-4 -10 -10z"/>
<path d="M40 630 c0 -5 5 -10 10 -10 6 0 10 5 10 10 0 6 -4 10 -10 10 -5 0
-10 -4 -10 -10z"/>
<path d="M80 630 c0 -5 5 -10 10 -10 6 0 10 5 10 10 0 6 -4 10 -10 10 -5 0
-10 -4 -10 -10z"/>
<path d="M520 630 c0 -5 5 -10 10 -10 6 0 10 5 10 10 0 6 -4 10 -10 10 -5 0
-10 -4 -10 -10z"/>
<path d="M560 630 c0 -5 5 -10 10 -10 6 0 10 5 10 10 0 6 -4 10 -10 10 -5 0
-10 -4 -10 -10z"/>
<path d="M600 630 c0 -5 5 -10 10 -10 6 0 10 5 10 10 0 6 -4 10 -10 10 -5 0
-10 -4 -10 -10z"/>
<path d="M640 630 c0 -5 5 -10 10 -10 6 0 10 5 10 10 0 6 -4 10 -10 10 -5 0
-10 -4 -10 -10z"/>
<path d="M680 630 c0 -5 5 -10 10 -10 6 0 10 5 10 10 0 6 -4 10 -10 10 -5 0
-10 -4 -10 -10z"/>
<path d="M720 630 c0 -5 5 -10 10 -10 6 0 10 5 10 10 0 6 -4 10 -10 10 -5 0
-10 -4 -10 -10z"/>
<path d="M760 630 c0 -5 5 -10 10 -10 6 0 10 5 10 10 0 6 -4 10 -10 10 -5 0
-10 -4 -10 -10z"/>
<path d="M800 630 c0 -5 5 -10 10 -10 6 0 10 5 10 10 0 6 -4 10 -10 10 -5 0
-10 -4 -10 -10z"/>
<path d="M840 630 c0 -5 5 -10 10 -10 6 0 10 5 10 10 0 6 -4 10 -10 10 -5 0
-10 -4 -10 -10z"/>
<path d="M0 590 c0 -5 5 -10 10 -10 6 0 10 5 10 10 0 6 -4 10 -10 10 -5 0 -10
-4 -10 -10z"/>
<path d="M40 590 c0 -5 5 -10 10 -10 6 0 10 5 10 10 0 6 -4 10 -10 10 -5 0
-10 -4 -10 -10z"/>
<path d="M80 590 c0 -5 5 -10 10 -10 6 0 10 5 10 10 0 6 -4 10 -10 10 -5 0
-10 -4 -10 -10z"/>
<path d="M520 590 c0 -5 5 -10 10 -10 6 0 10 5 10 10 0 6 -4 10 -10 10 -5 0
-10 -4 -10 -10z"/>
<path d="M560 590 c0 -5 5 -10 10 -10 6 0 10 5 10 10 0 6 -4 10 -10 10 -5 0
-10 -4 -10 -10z"/>
<path d="M600 590 c0 -5 5 -10 10 -10 6 0 10 5 10 10 0 6 -4 10 -10 10 -5 0
-10 -4 -10 -10z"/>
<path d="M640 590 c0 -5 5 -10 10 -10 6 0 10 5 10 10 0 6 -4 10 -10 10 -5 0
-10 -4 -10 -10z"/>
<path d="M680 590 c0 -5 5 -10 10 -10 6 0 10 5 10 10 0 6 -4 10 -10 10 -5 0
-10 -4 -10 -10z"/>
<path d="M720 590 c0 -5 5 -10 10 -10 6 0 10 5 10 10 0 6 -4 10 -10 10 -5 0
-10 -4 -10 -10z"/>
<path d="M760 590 c0 -5 5 -10 10 -10 6 0 10 5 10 10 0 6 -4 10 -10 10 -5 0
-10 -4 -10 -10z"/>
<path d="M800 590 c0 -5 5 -10 10 -10 6 0 10 5 10 10 0 6 -4 10 -10 10 -5 0
-10 -4 -10 -10z"/>
<path d="M840 590 c0 -5 5 -10 10 -10 6 0 10 5 10 10 0 6 -4 10 -10 10 -5 0
-10 -4 -10 -10z"/>
<path d="M0 550 c0 -5 5 -10 10 -10 6 0 10 5 10 10 0 6 -4 10 -10 10 -5 0 -10
-4 -10 -10z"/>
<path d="M40 551 c0 -5 6 -12 13 -14 9 -4 8 -8 -3 -16 -8 -5 -11 -13 -7 -18 5
-4 12 -1 18 7 8 13 10 13 18 0 6 -8 13 -11 18 -7 4 5 1 12 -7 18 -13 8 -13 10
0 18 8 6 11 13 7 18 -5 4 -13 1 -18 -7 -8 -11 -12 -12 -16 -2 -5 14 -23 16
-23 3z"/>
<path d="M120 550 c0 -5 5 -10 10 -10 6 0 10 5 10 10 0 6 -4 10 -10 10 -5 0
-10 -4 -10 -10z"/>
<path d="M160 550 c0 -5 5 -10 10 -10 6 0 10 5 10 10 0 6 -4 10 -10 10 -5 0
-10 -4 -10 -10z"/>
<path d="M600 551 c0 -5 6 -12 13 -14 9 -4 8 -8 -3 -16 -8 -5 -11 -13 -7 -18
5 -4 12 -1 18 7 8 13 10 13 18 0 6 -8 13 -11 18 -7 4 5 1 12 -7 18 -13 8 -13
10 0 18 8 6 11 13 7 18 -5 4 -13 1 -18 -7 -8 -11 -12 -12 -16 -2 -5 14 -23 16
-23 3z"/>
<path d="M680 551 c0 -5 6 -12 13 -14 9 -4 8 -8 -3 -16 -8 -5 -11 -13 -7 -18
5 -4 12 -1 18 7 8 13 10 13 18 0 6 -8 13 -11 18 -7 4 5 1 12 -7 18 -13 8 -13
10 0 18 8 6 11 13 7 18 -5 4 -13 1 -18 -7 -8 -11 -12 -12 -16 -2 -5 14 -23 16
-23 3z"/>
<path d="M760 550 c0 -5 5 -10 10 -10 6 0 10 5 10 10 0 6 -4 10 -10 10 -5 0
-10 -4 -10 -10z"/>
<path d="M800 550 c0 -5 5 -10 10 -10 6 0 10 5 10 10 0 6 -4 10 -10 10 -5 0
-10 -4 -10 -10z"/>
<path d="M0 510 c0 -5 5 -10 10 -10 6 0 10 5 10 10 0 6 -4 10 -10 10 -5 0 -10
-4 -10 -10z"/>
<path d="M120 510 c0 -5 5 -10 10 -10 6 0 10 5 10 10 0 6 -4 10 -10 10 -5 0
-10 -4 -10 -10z"/>
<path d="M160 510 c0 -5 5 -10 10 -10 6 0 10 5 10 10 0 6 -4 10 -10 10 -5 0
-10 -4 -10 -10z"/>
<path d="M760 510 c0 -5 5 -10 10 -10 6 0 10 5 10 10 0 6 -4 10 -10 10 -5 0
-10 -4 -10 -10z"/>
<path d="M800 510 c0 -5 5 -10 10 -10 6 0 10 5 10 10 0 6 -4 10 -10 10 -5 0
-10 -4 -10 -10z"/>
<path d="M0 470 c0 -5 5 -10 10 -10 6 0 10 5 10 10 0 6 -4 10 -10 10 -5 0 -10
-4 -10 -10z"/>
<path d="M40 470 c0 -5 5 -10 10 -10 6 0 10 5 10 10 0 6 -4 10 -10 10 -5 0
-10 -4 -10 -10z"/>
<path d="M80 470 c0 -5 5 -10 10 -10 6 0 10 5 10 10 0 6 -4 10 -10 10 -5 0
-10 -4 -10 -10z"/>
<path d="M120 470 c0 -5 5 -10 10 -10 6 0 10 5 10 10 0 6 -4 10 -10 10 -5 0
-10 -4 -10 -10z"/>
<path d="M160 470 c0 -5 5 -10 10 -10 6 0 10 5 10 10 0 6 -4 10 -10 10 -5 0
-10 -4 -10 -10z"/>
<path d="M200 470 c0 -5 5 -10 10 -10 6 0 10 5 10 10 0 6 -4 10 -10 10 -5 0
-10 -4 -10 -10z"/>
<path d="M240 470 c0 -5 5 -10 10 -10 6 0 10 5 10 10 0 6 -4 10 -10 10 -5 0
-10 -4 -10 -10z"/>
<path d="M600 475 c0 -12 52 -57 58 -51 3 4 0 11 -8 17 -13 8 -13 10 0 18 8 6
11 13 7 18 -5 4 -13 1 -18 -7 -8 -11 -12 -12 -16 -2 -5 12 -23 17 -23 7z"/>
<path d="M680 470 c0 -5 5 -10 10 -10 6 0 10 5 10 10 0 6 -4 10 -10 10 -5 0
-10 -4 -10 -10z"/>
<path d="M720 470 c0 -5 5 -10 10 -10 6 0 10 5 10 10 0 6 -4 10 -10 10 -5 0
-10 -4 -10 -10z"/>
<path d="M760 470 c0 -5 5 -10 10 -10 6 0 10 5 10 10 0 6 -4 10 -10 10 -5 0
-10 -4 -10 -10z"/>
<path d="M800 470 c0 -5 5 -10 10 -10 6 0 10 5 10 10 0 6 -4 10 -10 10 -5 0
-10 -4 -10 -10z"/>
<path d="M840 470 c0 -5 5 -10 10 -10 6 0 10 5 10 10 0 6 -4 10 -10 10 -5 0
-10 -4 -10 -10z"/>
<path d="M0 430 c0 -5 5 -10 10 -10 6 0 10 5 10 10 0 6 -4 10 -10 10 -5 0 -10
-4 -10 -10z"/>
<path d="M40 430 c0 -5 5 -10 10 -10 6 0 10 5 10 10 0 6 -4 10 -10 10 -5 0
-10 -4 -10 -10z"/>
<path d="M80 430 c0 -5 5 -10 10 -10 6 0 10 5 10 10 0 6 -4 10 -10 10 -5 0
-10 -4 -10 -10z"/>
<path d="M120 430 c0 -5 5 -10 10 -10 6 0 10 5 10 10 0 6 -4 10 -10 10 -5 0
-10 -4 -10 -10z"/>
<path d="M160 430 c0 -5 5 -10 10 -10 6 0 10 5 10 10 0 6 -4 10 -10 10 -5 0
-10 -4 -10 -10z"/>
<path d="M200 430 c0 -5 5 -10 10 -10 6 0 10 5 10 10 0 6 -4 10 -10 10 -5 0
-10 -4 -10 -10z"/>
<path d="M240 430 c0 -5 5 -10 10 -10 6 0 10 5 10 10 0 6 -4 10 -10 10 -5 0
-10 -4 -10 -10z"/>
<path d="M280 430 c0 -5 5 -10 10 -10 6 0 10 5 10 10 0 6 -4 10 -10 10 -5 0
-10 -4 -10 -10z"/>
<path d="M680 430 c0 -5 5 -10 10 -10 6 0 10 5 10 10 0 6 -4 10 -10 10 -5 0
-10 -4 -10 -10z"/>
<path d="M720 430 c0 -5 5 -10 10 -10 6 0 10 5 10 10 0 6 -4 10 -10 10 -5 0
-10 -4 -10 -10z"/>
<path d="M760 430 c0 -5 5 -10 10 -10 6 0 10 5 10 10 0 6 -4 10 -10 10 -5 0
-10 -4 -10 -10z"/>
<path d="M800 430 c0 -5 5 -10 10 -10 6 0 10 5 10 10 0 6 -4 10 -10 10 -5 0
-10 -4 -10 -10z"/>
<path d="M840 430 c0 -5 5 -10 10 -10 6 0 10 5 10 10 0 6 -4 10 -10 10 -5 0
-10 -4 -10 -10z"/>
<path d="M0 390 c0 -5 5 -10 10 -10 6 0 10 5 10 10 0 6 -4 10 -10 10 -5 0 -10
-4 -10 -10z"/>
<path d="M40 391 c0 -5 6 -11 12 -13 9 -3 8 -10 -5 -23 -16 -15 -20 -16 -27
-4 -5 7 -12 10 -16 7 -3 -4 6 -19 21 -33 14 -15 29 -24 33 -21 3 4 0 11 -7 16
-12 7 -11 11 3 26 15 14 19 15 26 3 5 -7 12 -10 17 -6 4 5 1 12 -7 18 -13 8
-13 10 0 18 8 6 11 13 7 18 -5 4 -13 1 -18 -7 -8 -11 -12 -12 -16 -2 -5 14
-23 16 -23 3z"/>
<path d="M120 390 c0 -5 5 -10 10 -10 6 0 10 5 10 10 0 6 -4 10 -10 10 -5 0
-10 -4 -10 -10z"/>
<path d="M160 390 c0 -5 5 -10 10 -10 6 0 10 5 10 10 0 6 -4 10 -10 10 -5 0
-10 -4 -10 -10z"/>
<path d="M200 391 c0 -5 6 -12 13 -14 9 -4 8 -8 -3 -16 -8 -5 -11 -13 -7 -18
5 -4 12 -1 18 7 8 13 10 13 18 0 6 -8 13 -11 18 -7 4 5 1 12 -7 18 -13 8 -13
10 0 18 8 6 11 13 7 18 -5 4 -13 1 -18 -7 -8 -11 -12 -12 -16 -2 -5 14 -23 16
-23 3z"/>
<path d="M280 390 c0 -5 5 -10 10 -10 6 0 10 5 10 10 0 6 -4 10 -10 10 -5 0
-10 -4 -10 -10z"/>
<path d="M320 390 c0 -5 5 -10 10 -10 6 0 10 5 10 10 0 6 -4 10 -10 10 -5 0
-10 -4 -10 -10z"/>
<path d="M760 390 c0 -5 5 -10 10 -10 6 0 10 5 10 10 0 6 -4 10 -10 10 -5 0
-10 -4 -10 -10z"/>
<path d="M800 390 c0 -5 5 -10 10 -10 6 0 10 5 10 10 0 6 -4 10 -10 10 -5 0
-10 -4 -10 -10z"/>
<path d="M120 350 c0 -5 5 -10 10 -10 6 0 10 5 10 10 0 6 -4 10 -10 10 -5 0
-10 -4 -10 -10z"/>
<path d="M160 350 c0 -5 5 -10 10 -10 6 0 10 5 10 10 0 6 -4 10 -10 10 -5 0
-10 -4 -10 -10z"/>
<path d="M280 350 c0 -5 5 -10 10 -10 6 0 10 5 10 10 0 6 -4 10 -10 10 -5 0
-10 -4 -10 -10z"/>
<path d="M320 350 c0 -5 5 -10 10 -10 6 0 10 5 10 10 0 6 -4 10 -10 10 -5 0
-10 -4 -10 -10z"/>
<path d="M760 350 c0 -5 5 -10 10 -10 6 0 10 5 10 10 0 6 -4 10 -10 10 -5 0
-10 -4 -10 -10z"/>
<path d="M800 350 c0 -5 5 -10 10 -10 6 0 10 5 10 10 0 6 -4 10 -10 10 -5 0
-10 -4 -10 -10z"/>
<path d="M920 350 c0 -5 5 -10 10 -10 6 0 10 5 10 10 0 6 -4 10 -10 10 -5 0
-10 -4 -10 -10z"/>
<path d="M80 310 c0 -5 5 -10 10 -10 6 0 10 5 10 10 0 6 -4 10 -10 10 -5 0
-10 -4 -10 -10z"/>
<path d="M120 310 c0 -5 5 -10 10 -10 6 0 10 5 10 10 0 6 -4 10 -10 10 -5 0
-10 -4 -10 -10z"/>
<path d="M160 310 c0 -5 5 -10 10 -10 6 0 10 5 10 10 0 6 -4 10 -10 10 -5 0
-10 -4 -10 -10z"/>
<path d="M200 310 c0 -5 5 -10 10 -10 6 0 10 5 10 10 0 6 -4 10 -10 10 -5 0
-10 -4 -10 -10z"/>
<path d="M240 310 c0 -5 5 -10 10 -10 6 0 10 5 10 10 0 6 -4 10 -10 10 -5 0
-10 -4 -10 -10z"/>
<path d="M280 310 c0 -5 5 -10 10 -10 6 0 10 5 10 10 0 6 -4 10 -10 10 -5 0
-10 -4 -10 -10z"/>
<path d="M320 310 c0 -5 5 -10 10 -10 6 0 10 5 10 10 0 6 -4 10 -10 10 -5 0
-10 -4 -10 -10z"/>
<path d="M800 310 c0 -5 5 -10 10 -10 6 0 10 5 10 10 0 6 -4 10 -10 10 -5 0
-10 -4 -10 -10z"/>
<path d="M840 310 c0 -5 5 -10 10 -10 6 0 10 5 10 10 0 6 -4 10 -10 10 -5 0
-10 -4 -10 -10z"/>
<path d="M880 310 c0 -5 5 -10 10 -10 6 0 10 5 10 10 0 6 -4 10 -10 10 -5 0
-10 -4 -10 -10z"/>
<path d="M920 310 c0 -5 5 -10 10 -10 6 0 10 5 10 10 0 6 -4 10 -10 10 -5 0
-10 -4 -10 -10z"/>
<path d="M40 270 c0 -5 5 -10 10 -10 6 0 10 5 10 10 0 6 -4 10 -10 10 -5 0
-10 -4 -10 -10z"/>
<path d="M80 270 c0 -5 5 -10 10 -10 6 0 10 5 10 10 0 6 -4 10 -10 10 -5 0
-10 -4 -10 -10z"/>
<path d="M120 270 c0 -5 5 -10 10 -10 6 0 10 5 10 10 0 6 -4 10 -10 10 -5 0
-10 -4 -10 -10z"/>
<path d="M160 270 c0 -5 5 -10 10 -10 6 0 10 5 10 10 0 6 -4 10 -10 10 -5 0
-10 -4 -10 -10z"/>
<path d="M200 270 c0 -5 5 -10 10 -10 6 0 10 5 10 10 0 6 -4 10 -10 10 -5 0
-10 -4 -10 -10z"/>
<path d="M240 270 c0 -5 5 -10 10 -10 6 0 10 5 10 10 0 6 -4 10 -10 10 -5 0
-10 -4 -10 -10z"/>
<path d="M280 270 c0 -5 5 -10 10 -10 6 0 10 5 10 10 0 6 -4 10 -10 10 -5 0
-10 -4 -10 -10z"/>
<path d="M320 270 c0 -5 5 -10 10 -10 6 0 10 5 10 10 0 6 -4 10 -10 10 -5 0
-10 -4 -10 -10z"/>
<path d="M360 270 c0 -5 5 -10 10 -10 6 0 10 5 10 10 0 6 -4 10 -10 10 -5 0
-10 -4 -10 -10z"/>
<path d="M800 270 c0 -5 5 -10 10 -10 6 0 10 5 10 10 0 6 -4 10 -10 10 -5 0
-10 -4 -10 -10z"/>
<path d="M840 270 c0 -5 5 -10 10 -10 6 0 10 5 10 10 0 6 -4 10 -10 10 -5 0
-10 -4 -10 -10z"/>
<path d="M880 270 c0 -5 5 -10 10 -10 6 0 10 5 10 10 0 6 -4 10 -10 10 -5 0
-10 -4 -10 -10z"/>
<path d="M920 270 c0 -5 5 -10 10 -10 6 0 10 5 10 10 0 6 -4 10 -10 10 -5 0
-10 -4 -10 -10z"/>
<path d="M71 224 c-18 -21 -6 -30 14 -11 8 9 15 18 15 21 0 11 -15 5 -29 -10z"/>
<path d="M120 230 c0 -5 5 -10 10 -10 6 0 10 5 10 10 0 6 -4 10 -10 10 -5 0
-10 -4 -10 -10z"/>
<path d="M160 230 c0 -5 5 -10 10 -10 6 0 10 5 10 10 0 6 -4 10 -10 10 -5 0
-10 -4 -10 -10z"/>
<path d="M200 230 c0 -5 5 -10 10 -10 6 0 10 5 10 10 0 6 -4 10 -10 10 -5 0
-10 -4 -10 -10z"/>
<path d="M240 230 c0 -5 5 -10 10 -10 6 0 10 5 10 10 0 6 -4 10 -10 10 -5 0
-10 -4 -10 -10z"/>
<path d="M280 230 c0 -5 5 -10 10 -10 6 0 10 5 10 10 0 6 -4 10 -10 10 -5 0
-10 -4 -10 -10z"/>
<path d="M320 230 c0 -5 5 -10 10 -10 6 0 10 5 10 10 0 6 -4 10 -10 10 -5 0
-10 -4 -10 -10z"/>
<path d="M760 230 c0 -5 5 -10 10 -10 6 0 10 5 10 10 0 6 -4 10 -10 10 -5 0
-10 -4 -10 -10z"/>
<path d="M800 230 c0 -5 5 -10 10 -10 6 0 10 5 10 10 0 6 -4 10 -10 10 -5 0
-10 -4 -10 -10z"/>
<path d="M112 185 c-11 -12 -2 -25 53 -80 60 -60 67 -65 81 -50 9 9 13 19 10
23 -4 3 -11 0 -16 -7 -7 -12 -11 -11 -26 3 -14 15 -15 19 -3 26 7 5 10 12 6
17 -5 4 -12 1 -17 -6 -7 -12 -11 -11 -26 3 -14 15 -15 19 -3 26 7 5 10 12 6
17 -5 4 -12 1 -17 -6 -7 -12 -11 -11 -27 4 -13 13 -14 20 -5 23 13 4 17 22 5
22 -5 -1 -14 -7 -21 -15z"/>
<path d="M160 190 c0 -5 5 -10 10 -10 6 0 10 5 10 10 0 6 -4 10 -10 10 -5 0
-10 -4 -10 -10z"/>
<path d="M200 190 c0 -5 5 -10 10 -10 6 0 10 5 10 10 0 6 -4 10 -10 10 -5 0
-10 -4 -10 -10z"/>
<path d="M240 190 c0 -5 5 -10 10 -10 6 0 10 5 10 10 0 6 -4 10 -10 10 -5 0
-10 -4 -10 -10z"/>
<path d="M280 190 c0 -5 5 -10 10 -10 6 0 10 5 10 10 0 6 -4 10 -10 10 -5 0
-10 -4 -10 -10z"/>
<path d="M320 190 c0 -5 5 -10 10 -10 6 0 10 5 10 10 0 6 -4 10 -10 10 -5 0
-10 -4 -10 -10z"/>
<path d="M760 190 c0 -5 5 -10 10 -10 6 0 10 5 10 10 0 6 -4 10 -10 10 -5 0
-10 -4 -10 -10z"/>
<path d="M800 190 c0 -5 5 -10 10 -10 6 0 10 5 10 10 0 6 -4 10 -10 10 -5 0
-10 -4 -10 -10z"/>
<path d="M200 150 c0 -5 5 -10 10 -10 6 0 10 5 10 10 0 6 -4 10 -10 10 -5 0
-10 -4 -10 -10z"/>
<path d="M240 150 c0 -5 5 -10 10 -10 6 0 10 5 10 10 0 6 -4 10 -10 10 -5 0
-10 -4 -10 -10z"/>
<path d="M280 150 c0 -5 5 -10 10 -10 6 0 10 5 10 10 0 6 -4 10 -10 10 -5 0
-10 -4 -10 -10z"/>
<path d="M320 150 c0 -5 5 -10 10 -10 6 0 10 5 10 10 0 6 -4 10 -10 10 -5 0
-10 -4 -10 -10z"/>
<path d="M360 150 c0 -5 5 -10 10 -10 6 0 10 5 10 10 0 6 -4 10 -10 10 -5 0
-10 -4 -10 -10z"/>
<path d="M400 150 c0 -5 5 -10 10 -10 6 0 10 5 10 10 0 6 -4 10 -10 10 -5 0
-10 -4 -10 -10z"/>
<path d="M440 150 c0 -5 5 -10 10 -10 6 0 10 5 10 10 0 6 -4 10 -10 10 -5 0
-10 -4 -10 -10z"/>
<path d="M720 150 c0 -5 5 -10 10 -10 6 0 10 5 10 10 0 6 -4 10 -10 10 -5 0
-10 -4 -10 -10z"/>
<path d="M760 150 c0 -5 5 -10 10 -10 6 0 10 5 10 10 0 6 -4 10 -10 10 -5 0
-10 -4 -10 -10z"/>
<path d="M800 150 c0 -5 5 -10 10 -10 6 0 10 5 10 10 0 6 -4 10 -10 10 -5 0
-10 -4 -10 -10z"/>
<path d="M240 110 c0 -5 5 -10 10 -10 6 0 10 5 10 10 0 6 -4 10 -10 10 -5 0
-10 -4 -10 -10z"/>
<path d="M280 110 c0 -5 5 -10 10 -10 6 0 10 5 10 10 0 6 -4 10 -10 10 -5 0
-10 -4 -10 -10z"/>
<path d="M320 110 c0 -5 5 -10 10 -10 6 0 10 5 10 10 0 6 -4 10 -10 10 -5 0
-10 -4 -10 -10z"/>
<path d="M360 110 c0 -5 5 -10 10 -10 6 0 10 5 10 10 0 6 -4 10 -10 10 -5 0
-10 -4 -10 -10z"/>
<path d="M400 110 c0 -5 5 -10 10 -10 6 0 10 5 10 10 0 6 -4 10 -10 10 -5 0
-10 -4 -10 -10z"/>
<path d="M440 110 c0 -5 5 -10 10 -10 6 0 10 5 10 10 0 6 -4 10 -10 10 -5 0
-10 -4 -10 -10z"/>
<path d="M680 110 c0 -5 5 -10 10 -10 6 0 10 5 10 10 0 6 -4 10 -10 10 -5 0
-10 -4 -10 -10z"/>
<path d="M720 110 c0 -5 5 -10 10 -10 6 0 10 5 10 10 0 6 -4 10 -10 10 -5 0
-10 -4 -10 -10z"/>
<path d="M760 110 c0 -5 5 -10 10 -10 6 0 10 5 10 10 0 6 -4 10 -10 10 -5 0
-10 -4 -10 -10z"/>
<path d="M800 110 c0 -5 5 -10 10 -10 6 0 10 5 10 10 0 6 -4 10 -10 10 -5 0
-10 -4 -10 -10z"/>
<path d="M280 70 c0 -5 5 -10 10 -10 6 0 10 5 10 10 0 6 -4 10 -10 10 -5 0
-10 -4 -10 -10z"/>
<path d="M320 70 c0 -5 5 -10 10 -10 6 0 10 5 10 10 0 6 -4 10 -10 10 -5 0
-10 -4 -10 -10z"/>
<path d="M360 70 c0 -5 5 -10 10 -10 6 0 10 5 10 10 0 6 -4 10 -10 10 -5 0
-10 -4 -10 -10z"/>
<path d="M400 70 c0 -5 5 -10 10 -10 6 0 10 5 10 10 0 6 -4 10 -10 10 -5 0
-10 -4 -10 -10z"/>
<path d="M440 70 c0 -5 5 -10 10 -10 6 0 10 5 10 10 0 6 -4 10 -10 10 -5 0
-10 -4 -10 -10z"/>
<path d="M640 70 c0 -5 5 -10 10 -10 6 0 10 5 10 10 0 6 -4 10 -10 10 -5 0
-10 -4 -10 -10z"/>
<path d="M680 71 c0 -5 6 -12 13 -14 9 -4 8 -8 -3 -16 -8 -5 -11 -13 -7 -18 5
-4 12 -1 18 7 8 13 10 13 18 0 6 -8 13 -11 18 -7 4 5 1 12 -7 18 -13 8 -13 10
0 18 8 6 11 13 7 18 -5 4 -13 1 -18 -7 -8 -11 -12 -12 -16 -2 -5 14 -23 16
-23 3z"/>
<path d="M760 74 c0 -3 7 -12 15 -20 13 -14 17 -14 31 1 9 9 13 19 10 23 -4 3
-12 0 -17 -8 -8 -11 -12 -12 -16 -2 -5 12 -23 17 -23 6z"/>
<path d="M280 30 c0 -5 5 -10 10 -10 6 0 10 5 10 10 0 6 -4 10 -10 10 -5 0
-10 -4 -10 -10z"/>
<path d="M320 30 c0 -5 5 -10 10 -10 6 0 10 5 10 10 0 6 -4 10 -10 10 -5 0
-10 -4 -10 -10z"/>
<path d="M360 30 c0 -5 5 -10 10 -10 6 0 10 5 10 10 0 6 -4 10 -10 10 -5 0
-10 -4 -10 -10z"/>
<path d="M400 30 c0 -5 5 -10 10 -10 6 0 10 5 10 10 0 6 -4 10 -10 10 -5 0
-10 -4 -10 -10z"/>
<path d="M440 30 c0 -5 5 -10 10 -10 6 0 10 5 10 10 0 6 -4 10 -10 10 -5 0
-10 -4 -10 -10z"/>
<path d="M600 30 c0 -5 5 -10 10 -10 6 0 10 5 10 10 0 6 -4 10 -10 10 -5 0
-10 -4 -10 -10z"/>
<path d="M640 30 c0 -5 5 -10 10 -10 6 0 10 5 10 10 0 6 -4 10 -10 10 -5 0
-10 -4 -10 -10z"/>
</g>
</svg>
